<svg width="40" height="40" viewBox="0 0 40 40" fill="none" xmlns="http://www.w3.org/2000/svg">
<rect width="40" height="40" rx="8" fill="url(#paint0_linear_1_68)"/>
<rect x="1.05" y="1.05" width="37.9" height="37.9" rx="6.95" stroke="white" stroke-opacity="0.15" stroke-width="2.1"/>
<g filter="url(#filter0_d_1_68)">
<g clip-path="url(#clip0_1_68)">
<path d="M34 23.1111C34 28.9102 27.7319 32.4444 20 32.4444C12.2681 32.4444 6 28.9102 6 23.1111C6 17.312 12.2681 11.4444 20 11.4444C27.7319 11.4444 34 17.312 34 23.1111Z" fill="#C6E5B3"/>
<path d="M30.6983 15.8591C31.7623 15.0036 32.4444 13.693 32.4444 12.2222C32.4444 9.64545 30.3546 7.55556 27.7778 7.55556C25.5526 7.55556 23.6944 9.11422 23.227 11.1994C22.2252 10.8238 21.1402 10.6099 20 10.6099C18.8606 10.6099 17.7748 10.8238 16.773 11.1994C16.3056 9.11422 14.4474 7.55556 12.2222 7.55556C9.64544 7.55556 7.55556 9.64545 7.55556 12.2222C7.55556 13.693 8.23767 15.0036 9.30167 15.8591C7.24444 17.9436 6 20.5328 6 23.1111C6 28.9102 12.2681 23.8889 20 23.8889C27.7319 23.8889 34 28.9102 34 23.1111C34 20.5328 32.7556 17.9436 30.6983 15.8591Z" fill="#77B255"/>
<path d="M11.8333 14.5556C13.3368 14.5556 14.5556 13.3368 14.5556 11.8333C14.5556 10.3299 13.3368 9.11111 11.8333 9.11111C10.3299 9.11111 9.11111 10.3299 9.11111 11.8333C9.11111 13.3368 10.3299 14.5556 11.8333 14.5556Z" fill="white"/>
<path d="M11.8333 13C12.4777 13 13 12.4777 13 11.8333C13 11.189 12.4777 10.6667 11.8333 10.6667C11.189 10.6667 10.6667 11.189 10.6667 11.8333C10.6667 12.4777 11.189 13 11.8333 13Z" fill="#292F33"/>
<path d="M28.1667 14.5556C29.6701 14.5556 30.8889 13.3368 30.8889 11.8333C30.8889 10.3299 29.6701 9.11111 28.1667 9.11111C26.6632 9.11111 25.4444 10.3299 25.4444 11.8333C25.4444 13.3368 26.6632 14.5556 28.1667 14.5556Z" fill="white"/>
<path d="M28.1667 13C28.811 13 29.3333 12.4777 29.3333 11.8333C29.3333 11.189 28.811 10.6667 28.1667 10.6667C27.5223 10.6667 27 11.189 27 11.8333C27 12.4777 27.5223 13 28.1667 13Z" fill="#292F33"/>
<path d="M16.8889 22.3333C17.3184 22.3333 17.6667 21.9851 17.6667 21.5556C17.6667 21.126 17.3184 20.7778 16.8889 20.7778C16.4593 20.7778 16.1111 21.126 16.1111 21.5556C16.1111 21.9851 16.4593 22.3333 16.8889 22.3333Z" fill="#5C913B"/>
<path d="M23.1111 22.3333C23.5407 22.3333 23.8889 21.9851 23.8889 21.5556C23.8889 21.126 23.5407 20.7778 23.1111 20.7778C22.6816 20.7778 22.3333 21.126 22.3333 21.5556C22.3333 21.9851 22.6816 22.3333 23.1111 22.3333Z" fill="#5C913B"/>
</g>
</g>
<defs>
<filter id="filter0_d_1_68" x="2" y="2" width="36" height="36" filterUnits="userSpaceOnUse" color-interpolation-filters="sRGB">
<feFlood flood-opacity="0" result="BackgroundImageFix"/>
<feColorMatrix in="SourceAlpha" type="matrix" values="0 0 0 0 0 0 0 0 0 0 0 0 0 0 0 0 0 0 127 0" result="hardAlpha"/>
<feOffset/>
<feGaussianBlur stdDeviation="2"/>
<feComposite in2="hardAlpha" operator="out"/>
<feColorMatrix type="matrix" values="0 0 0 0 0 0 0 0 0 0 0 0 0 0 0 0 0 0 0.25 0"/>
<feBlend mode="normal" in2="BackgroundImageFix" result="effect1_dropShadow_1_68"/>
<feBlend mode="normal" in="SourceGraphic" in2="effect1_dropShadow_1_68" result="shape"/>
</filter>
<linearGradient id="paint0_linear_1_68" x1="20" y1="0" x2="20" y2="40" gradientUnits="userSpaceOnUse">
<stop stop-color="#072C13"/>
<stop offset="1" stop-color="#041C0B"/>
</linearGradient>
<clipPath id="clip0_1_68">
<rect width="28" height="28" fill="white" transform="translate(6 6)"/>
</clipPath>
</defs>
</svg>
