<svg width="225" height="40" viewBox="0 0 225 40" fill="none" xmlns="http://www.w3.org/2000/svg">
<rect width="225" height="40" rx="8" fill="url(#paint0_linear_1_56)"/>
<rect x="1.07143" y="1.07143" width="222.857" height="37.8571" rx="6.92857" stroke="white" stroke-opacity="0.15" stroke-width="2.14286"/>
<g filter="url(#filter0_d_1_56)">
<g clip-path="url(#clip0_1_56)">
<path d="M36 23.1111C36 28.9102 29.7319 32.4444 22 32.4444C14.2681 32.4444 8 28.9102 8 23.1111C8 17.312 14.2681 11.4444 22 11.4444C29.7319 11.4444 36 17.312 36 23.1111Z" fill="#C6E5B3"/>
<path d="M32.6983 15.8591C33.7623 15.0036 34.4444 13.693 34.4444 12.2222C34.4444 9.64545 32.3546 7.55556 29.7778 7.55556C27.5526 7.55556 25.6944 9.11422 25.227 11.1994C24.2252 10.8238 23.1402 10.6099 22 10.6099C20.8606 10.6099 19.7748 10.8238 18.773 11.1994C18.3056 9.11422 16.4474 7.55556 14.2222 7.55556C11.6454 7.55556 9.55556 9.64545 9.55556 12.2222C9.55556 13.693 10.2377 15.0036 11.3017 15.8591C9.24444 17.9436 8 20.5328 8 23.1111C8 28.9102 14.2681 23.8889 22 23.8889C29.7319 23.8889 36 28.9102 36 23.1111C36 20.5328 34.7556 17.9436 32.6983 15.8591Z" fill="#77B255"/>
<path d="M13.8333 14.5556C15.3368 14.5556 16.5556 13.3368 16.5556 11.8333C16.5556 10.3299 15.3368 9.11111 13.8333 9.11111C12.3299 9.11111 11.1111 10.3299 11.1111 11.8333C11.1111 13.3368 12.3299 14.5556 13.8333 14.5556Z" fill="white"/>
<path d="M13.8333 13C14.4777 13 15 12.4777 15 11.8333C15 11.189 14.4777 10.6667 13.8333 10.6667C13.189 10.6667 12.6667 11.189 12.6667 11.8333C12.6667 12.4777 13.189 13 13.8333 13Z" fill="#292F33"/>
<path d="M30.1667 14.5556C31.6701 14.5556 32.8889 13.3368 32.8889 11.8333C32.8889 10.3299 31.6701 9.11111 30.1667 9.11111C28.6632 9.11111 27.4444 10.3299 27.4444 11.8333C27.4444 13.3368 28.6632 14.5556 30.1667 14.5556Z" fill="white"/>
<path d="M30.1667 13C30.811 13 31.3333 12.4777 31.3333 11.8333C31.3333 11.189 30.811 10.6667 30.1667 10.6667C29.5223 10.6667 29 11.189 29 11.8333C29 12.4777 29.5223 13 30.1667 13Z" fill="#292F33"/>
<path d="M18.8889 22.3333C19.3184 22.3333 19.6667 21.9851 19.6667 21.5556C19.6667 21.126 19.3184 20.7778 18.8889 20.7778C18.4593 20.7778 18.1111 21.126 18.1111 21.5556C18.1111 21.9851 18.4593 22.3333 18.8889 22.3333Z" fill="#5C913B"/>
<path d="M25.1111 22.3333C25.5407 22.3333 25.8889 21.9851 25.8889 21.5556C25.8889 21.126 25.5407 20.7778 25.1111 20.7778C24.6816 20.7778 24.3333 21.126 24.3333 21.5556C24.3333 21.9851 24.6816 22.3333 25.1111 22.3333Z" fill="#5C913B"/>
</g>
</g>
<g filter="url(#filter1_d_1_56)">
<path d="M44.2613 25.5H42.3977L46.5852 13.8636H48.6136L52.8011 25.5H50.9375L47.6477 15.9773H47.5568L44.2613 25.5ZM44.5738 20.9432H50.6193V22.4205H44.5738V20.9432ZM60.7173 16.7727L57.5525 25.5H55.7344L52.5639 16.7727H54.3878L56.598 23.4886H56.6889L58.8934 16.7727H60.7173ZM64.6037 25.6932C64.0506 25.6932 63.5506 25.5909 63.1037 25.3864C62.6567 25.178 62.3025 24.8769 62.0412 24.483C61.7836 24.089 61.6548 23.6061 61.6548 23.0341C61.6548 22.5417 61.7495 22.1364 61.9389 21.8182C62.1283 21.5 62.384 21.2481 62.7059 21.0625C63.0279 20.8769 63.3878 20.7367 63.7855 20.642C64.1832 20.5473 64.5885 20.4754 65.0014 20.4261C65.5241 20.3655 65.9484 20.3163 66.2741 20.2784C66.5999 20.2367 66.8366 20.1705 66.9844 20.0795C67.1321 19.9886 67.2059 19.8409 67.2059 19.6364V19.5966C67.2059 19.1004 67.0658 18.7159 66.7855 18.4432C66.509 18.1705 66.0961 18.0341 65.5469 18.0341C64.9749 18.0341 64.5241 18.161 64.1946 18.4148C63.8688 18.6648 63.6434 18.9432 63.5184 19.25L61.9219 18.8864C62.1112 18.3561 62.3878 17.928 62.7514 17.6023C63.1188 17.2727 63.5412 17.0341 64.0184 16.8864C64.4957 16.7348 64.9976 16.6591 65.5241 16.6591C65.8726 16.6591 66.2419 16.7008 66.6321 16.7841C67.026 16.8636 67.3934 17.0114 67.7344 17.2273C68.079 17.4432 68.3612 17.7519 68.5809 18.1534C68.8006 18.5511 68.9105 19.0682 68.9105 19.7045V25.5H67.2514V24.3068H67.1832C67.0734 24.5265 66.9086 24.7424 66.6889 24.9545C66.4692 25.1667 66.187 25.3428 65.8423 25.483C65.4976 25.6231 65.0847 25.6932 64.6037 25.6932ZM64.973 24.3295C65.4427 24.3295 65.8442 24.2367 66.1775 24.0511C66.5147 23.8655 66.7703 23.6231 66.9446 23.3239C67.1226 23.0208 67.2116 22.697 67.2116 22.3523V21.2273C67.151 21.2879 67.0336 21.3447 66.8594 21.3977C66.6889 21.447 66.4938 21.4905 66.2741 21.5284C66.0544 21.5625 65.8404 21.5947 65.6321 21.625C65.4237 21.6515 65.2495 21.6742 65.1094 21.6932C64.7798 21.7348 64.4787 21.8049 64.2059 21.9034C63.937 22.0019 63.7211 22.1439 63.5582 22.3295C63.3991 22.5114 63.3196 22.7538 63.3196 23.0568C63.3196 23.4773 63.4749 23.7955 63.7855 24.0114C64.0961 24.2235 64.4919 24.3295 64.973 24.3295ZM71.1733 25.5V16.7727H72.8721V25.5H71.1733ZM72.0312 15.4261C71.7358 15.4261 71.482 15.3276 71.2699 15.1307C71.0615 14.9299 70.9574 14.6913 70.9574 14.4148C70.9574 14.1345 71.0615 13.8958 71.2699 13.6989C71.482 13.4981 71.7358 13.3977 72.0312 13.3977C72.3267 13.3977 72.5786 13.4981 72.7869 13.6989C72.999 13.8958 73.1051 14.1345 73.1051 14.4148C73.1051 14.6913 72.999 14.9299 72.7869 15.1307C72.5786 15.3276 72.3267 15.4261 72.0312 15.4261ZM76.8565 13.8636V25.5H75.1576V13.8636H76.8565ZM81.6818 25.6932C81.1288 25.6932 80.6288 25.5909 80.1818 25.3864C79.7348 25.178 79.3807 24.8769 79.1193 24.483C78.8617 24.089 78.7329 23.6061 78.7329 23.0341C78.7329 22.5417 78.8276 22.1364 79.017 21.8182C79.2064 21.5 79.4621 21.2481 79.7841 21.0625C80.106 20.8769 80.4659 20.7367 80.8636 20.642C81.2613 20.5473 81.6666 20.4754 82.0795 20.4261C82.6022 20.3655 83.0265 20.3163 83.3522 20.2784C83.678 20.2367 83.9147 20.1705 84.0625 20.0795C84.2102 19.9886 84.2841 19.8409 84.2841 19.6364V19.5966C84.2841 19.1004 84.1439 18.7159 83.8636 18.4432C83.5871 18.1705 83.1742 18.0341 82.625 18.0341C82.053 18.0341 81.6022 18.161 81.2727 18.4148C80.9469 18.6648 80.7216 18.9432 80.5966 19.25L79 18.8864C79.1894 18.3561 79.4659 17.928 79.8295 17.6023C80.1969 17.2727 80.6193 17.0341 81.0966 16.8864C81.5738 16.7348 82.0757 16.6591 82.6022 16.6591C82.9507 16.6591 83.32 16.7008 83.7102 16.7841C84.1041 16.8636 84.4716 17.0114 84.8125 17.2273C85.1572 17.4432 85.4394 17.7519 85.6591 18.1534C85.8788 18.5511 85.9886 19.0682 85.9886 19.7045V25.5H84.3295V24.3068H84.2613C84.1515 24.5265 83.9867 24.7424 83.767 24.9545C83.5473 25.1667 83.2651 25.3428 82.9204 25.483C82.5757 25.6231 82.1629 25.6932 81.6818 25.6932ZM82.0511 24.3295C82.5208 24.3295 82.9223 24.2367 83.2557 24.0511C83.5928 23.8655 83.8485 23.6231 84.0227 23.3239C84.2007 23.0208 84.2897 22.697 84.2897 22.3523V21.2273C84.2291 21.2879 84.1117 21.3447 83.9375 21.3977C83.767 21.447 83.5719 21.4905 83.3522 21.5284C83.1325 21.5625 82.9185 21.5947 82.7102 21.625C82.5019 21.6515 82.3276 21.6742 82.1875 21.6932C81.8579 21.7348 81.5568 21.8049 81.2841 21.9034C81.0151 22.0019 80.7992 22.1439 80.6363 22.3295C80.4772 22.5114 80.3977 22.7538 80.3977 23.0568C80.3977 23.4773 80.553 23.7955 80.8636 24.0114C81.1742 24.2235 81.57 24.3295 82.0511 24.3295ZM88.3878 25.5V13.8636H90.0866V18.1875H90.1889C90.2874 18.0057 90.4294 17.7955 90.615 17.5568C90.8006 17.3182 91.0582 17.1098 91.3878 16.9318C91.7173 16.75 92.1529 16.6591 92.6946 16.6591C93.3991 16.6591 94.0279 16.8371 94.5809 17.1932C95.134 17.5492 95.5677 18.0625 95.8821 18.733C96.2003 19.4034 96.3593 20.2102 96.3593 21.1534C96.3593 22.0966 96.2021 22.9053 95.8878 23.5795C95.5734 24.25 95.1415 24.767 94.5923 25.1307C94.0431 25.4905 93.4162 25.6705 92.7116 25.6705C92.1813 25.6705 91.7476 25.5814 91.4105 25.4034C91.0771 25.2254 90.8158 25.017 90.6264 24.7784C90.437 24.5398 90.2912 24.3276 90.1889 24.142H90.0468V25.5H88.3878ZM90.0525 21.1364C90.0525 21.75 90.1415 22.2879 90.3196 22.75C90.4976 23.2121 90.7552 23.5739 91.0923 23.8352C91.4294 24.0928 91.8423 24.2216 92.3309 24.2216C92.8385 24.2216 93.2628 24.0871 93.6037 23.8182C93.9446 23.5455 94.2021 23.1761 94.3764 22.7102C94.5544 22.2443 94.6434 21.7197 94.6434 21.1364C94.6434 20.5606 94.5563 20.0436 94.3821 19.5852C94.2116 19.1269 93.954 18.7651 93.6093 18.5C93.2684 18.2348 92.8423 18.1023 92.3309 18.1023C91.8385 18.1023 91.4218 18.2292 91.0809 18.483C90.7438 18.7367 90.4881 19.0909 90.3139 19.5455C90.1396 20 90.0525 20.5303 90.0525 21.1364ZM99.9659 13.8636V25.5H98.267V13.8636H99.9659ZM106.013 25.6761C105.153 25.6761 104.412 25.4924 103.791 25.125C103.174 24.7538 102.696 24.233 102.359 23.5625C102.026 22.8883 101.859 22.0985 101.859 21.1932C101.859 20.2992 102.026 19.5114 102.359 18.8295C102.696 18.1477 103.166 17.6155 103.768 17.233C104.374 16.8504 105.083 16.6591 105.893 16.6591C106.386 16.6591 106.863 16.7405 107.325 16.9034C107.787 17.0663 108.202 17.322 108.57 17.6705C108.937 18.0189 109.227 18.4716 109.439 19.0284C109.651 19.5814 109.757 20.2538 109.757 21.0455V21.6477H102.82V20.375H108.092C108.092 19.928 108.001 19.5322 107.82 19.1875C107.638 18.839 107.382 18.5644 107.053 18.3636C106.727 18.1629 106.344 18.0625 105.905 18.0625C105.428 18.0625 105.011 18.1799 104.655 18.4148C104.303 18.6458 104.03 18.9489 103.837 19.3239C103.647 19.6951 103.553 20.0985 103.553 20.5341V21.5284C103.553 22.1117 103.655 22.608 103.859 23.017C104.068 23.4261 104.357 23.7386 104.729 23.9545C105.1 24.1667 105.534 24.2727 106.03 24.2727C106.352 24.2727 106.645 24.2273 106.91 24.1364C107.176 24.0417 107.405 23.9015 107.598 23.7159C107.791 23.5303 107.939 23.3011 108.041 23.0284L109.649 23.3182C109.52 23.7917 109.289 24.2064 108.956 24.5625C108.626 24.9148 108.212 25.1894 107.712 25.3864C107.215 25.5795 106.649 25.6761 106.013 25.6761ZM119.553 25.6761C118.734 25.6761 118.02 25.4886 117.41 25.1136C116.801 24.7386 116.327 24.214 115.99 23.5398C115.653 22.8655 115.484 22.0776 115.484 21.1761C115.484 20.2708 115.653 19.4792 115.99 18.8011C116.327 18.1231 116.801 17.5966 117.41 17.2216C118.02 16.8466 118.734 16.6591 119.553 16.6591C120.371 16.6591 121.085 16.8466 121.695 17.2216C122.304 17.5966 122.778 18.1231 123.115 18.8011C123.452 19.4792 123.621 20.2708 123.621 21.1761C123.621 22.0776 123.452 22.8655 123.115 23.5398C122.778 24.214 122.304 24.7386 121.695 25.1136C121.085 25.4886 120.371 25.6761 119.553 25.6761ZM119.558 24.25C120.089 24.25 120.528 24.1098 120.876 23.8295C121.225 23.5492 121.482 23.1761 121.649 22.7102C121.82 22.2443 121.905 21.7311 121.905 21.1705C121.905 20.6136 121.82 20.1023 121.649 19.6364C121.482 19.1667 121.225 18.7898 120.876 18.5057C120.528 18.2216 120.089 18.0795 119.558 18.0795C119.024 18.0795 118.581 18.2216 118.229 18.5057C117.88 18.7898 117.621 19.1667 117.45 19.6364C117.284 20.1023 117.2 20.6136 117.2 21.1705C117.2 21.7311 117.284 22.2443 117.45 22.7102C117.621 23.1761 117.88 23.5492 118.229 23.8295C118.581 24.1098 119.024 24.25 119.558 24.25ZM127.216 20.3182V25.5H125.517V16.7727H127.148V18.1932H127.256C127.456 17.7311 127.771 17.3598 128.199 17.0795C128.631 16.7992 129.174 16.6591 129.83 16.6591C130.424 16.6591 130.945 16.7841 131.392 17.0341C131.839 17.2803 132.186 17.6477 132.432 18.1364C132.678 18.625 132.801 19.2292 132.801 19.9489V25.5H131.102V20.1534C131.102 19.5208 130.937 19.0265 130.608 18.6705C130.278 18.3106 129.826 18.1307 129.25 18.1307C128.856 18.1307 128.506 18.2159 128.199 18.3864C127.896 18.5568 127.655 18.8068 127.477 19.1364C127.303 19.4621 127.216 19.8561 127.216 20.3182Z" fill="#E8E8E8"/>
<path d="M138.936 26V13.6364H147.375V16.0632H141.924V18.5987H146.838V21.0316H141.924V26H138.936ZM148.697 26V16.7273H151.565V18.4176H151.662C151.831 17.8059 152.106 17.3511 152.489 17.0533C152.871 16.7514 153.316 16.6005 153.823 16.6005C153.96 16.6005 154.1 16.6106 154.245 16.6307C154.39 16.6468 154.525 16.6729 154.65 16.7092V19.2749C154.509 19.2266 154.324 19.1883 154.094 19.1602C153.869 19.132 153.668 19.1179 153.491 19.1179C153.141 19.1179 152.825 19.1964 152.543 19.3533C152.265 19.5063 152.046 19.7216 151.885 19.9993C151.728 20.273 151.649 20.5949 151.649 20.9652V26H148.697ZM159.7 26.1751C158.726 26.1751 157.889 25.9758 157.188 25.5774C156.492 25.1749 155.955 24.6155 155.576 23.8991C155.202 23.1787 155.015 22.3436 155.015 21.3938C155.015 20.44 155.202 19.6049 155.576 18.8885C155.955 18.1681 156.492 17.6087 157.188 17.2102C157.889 16.8078 158.726 16.6065 159.7 16.6065C160.674 16.6065 161.509 16.8078 162.205 17.2102C162.905 17.6087 163.443 18.1681 163.817 18.8885C164.195 19.6049 164.384 20.44 164.384 21.3938C164.384 22.3436 164.195 23.1787 163.817 23.8991C163.443 24.6155 162.905 25.1749 162.205 25.5774C161.509 25.9758 160.674 26.1751 159.7 26.1751ZM159.718 23.9474C160.072 23.9474 160.372 23.8388 160.617 23.6214C160.863 23.4041 161.05 23.1023 161.179 22.7159C161.312 22.3295 161.378 21.8828 161.378 21.3757C161.378 20.8606 161.312 20.4098 161.179 20.0234C161.05 19.6371 160.863 19.3352 160.617 19.1179C160.372 18.9006 160.072 18.7919 159.718 18.7919C159.352 18.7919 159.042 18.9006 158.788 19.1179C158.539 19.3352 158.347 19.6371 158.215 20.0234C158.086 20.4098 158.021 20.8606 158.021 21.3757C158.021 21.8828 158.086 22.3295 158.215 22.7159C158.347 23.1023 158.539 23.4041 158.788 23.6214C159.042 23.8388 159.352 23.9474 159.718 23.9474ZM170.219 29.6704C169.338 29.6704 168.583 29.5477 167.955 29.3022C167.327 29.0567 166.834 28.7206 166.476 28.294C166.118 27.8674 165.903 27.3845 165.83 26.8452L168.625 26.6882C168.678 26.8774 168.774 27.0424 168.915 27.1832C169.06 27.3241 169.247 27.4328 169.477 27.5092C169.71 27.5857 169.984 27.6239 170.298 27.6239C170.793 27.6239 171.201 27.5032 171.523 27.2617C171.849 27.0243 172.012 26.6077 172.012 26.0121V24.3821H171.909C171.793 24.6678 171.616 24.9234 171.378 25.1488C171.141 25.3742 170.845 25.5513 170.491 25.68C170.141 25.8088 169.738 25.8732 169.283 25.8732C168.607 25.8732 167.987 25.7163 167.424 25.4023C166.865 25.0844 166.416 24.5934 166.078 23.9293C165.744 23.2612 165.577 22.402 165.577 21.3516C165.577 20.2689 165.75 19.3775 166.096 18.6772C166.442 17.9729 166.895 17.4517 167.454 17.1136C168.018 16.7756 168.623 16.6065 169.271 16.6065C169.758 16.6065 170.175 16.691 170.521 16.8601C170.871 17.0251 171.159 17.2384 171.384 17.5C171.61 17.7616 171.781 18.0333 171.897 18.315H171.982V16.7273H174.922V26.0362C174.922 26.821 174.725 27.4831 174.33 28.0224C173.936 28.5617 173.384 28.9702 172.676 29.2479C171.968 29.5296 171.149 29.6704 170.219 29.6704ZM170.31 23.7241C170.668 23.7241 170.974 23.6295 171.227 23.4403C171.481 23.2512 171.676 22.9795 171.813 22.6254C171.95 22.2712 172.018 21.8466 172.018 21.3516C172.018 20.8485 171.95 20.4158 171.813 20.0536C171.68 19.6874 171.485 19.4057 171.227 19.2084C170.974 19.0112 170.668 18.9126 170.31 18.9126C169.943 18.9126 169.633 19.0133 169.38 19.2145C169.126 19.4157 168.933 19.6995 168.8 20.0657C168.672 20.4279 168.607 20.8565 168.607 21.3516C168.607 21.8466 168.674 22.2712 168.806 22.6254C168.939 22.9795 169.13 23.2512 169.38 23.4403C169.633 23.6295 169.943 23.7241 170.31 23.7241ZM176.804 26V16.7273H179.671V18.4176H179.768C179.937 17.8059 180.213 17.3511 180.595 17.0533C180.977 16.7514 181.422 16.6005 181.929 16.6005C182.066 16.6005 182.207 16.6106 182.352 16.6307C182.497 16.6468 182.631 16.6729 182.756 16.7092V19.2749C182.615 19.2266 182.43 19.1883 182.201 19.1602C181.975 19.132 181.774 19.1179 181.597 19.1179C181.247 19.1179 180.931 19.1964 180.649 19.3533C180.372 19.5063 180.152 19.7216 179.991 19.9993C179.834 20.273 179.756 20.5949 179.756 20.9652V26H176.804ZM183.959 26V16.7273H186.911V26H183.959ZM185.438 15.6467C185.024 15.6467 184.667 15.5098 184.37 15.2361C184.072 14.9584 183.923 14.6244 183.923 14.234C183.923 13.8477 184.072 13.5176 184.37 13.244C184.667 12.9663 185.024 12.8274 185.438 12.8274C185.857 12.8274 186.213 12.9663 186.507 13.244C186.805 13.5176 186.953 13.8477 186.953 14.234C186.953 14.6244 186.805 14.9584 186.507 15.2361C186.213 15.5098 185.857 15.6467 185.438 15.6467ZM191.742 20.7116V26H188.79V16.7273H191.597V18.4297H191.7C191.905 17.8622 192.255 17.4175 192.75 17.0955C193.245 16.7695 193.835 16.6065 194.519 16.6065C195.171 16.6065 195.737 16.7534 196.216 17.0472C196.699 17.337 197.073 17.7435 197.338 18.2667C197.608 18.7859 197.741 19.3936 197.737 20.0898V26H194.785V20.6694C194.789 20.1542 194.658 19.7518 194.392 19.462C194.131 19.1722 193.767 19.0273 193.3 19.0273C192.99 19.0273 192.716 19.0958 192.479 19.2326C192.245 19.3654 192.064 19.5566 191.935 19.8061C191.811 20.0556 191.746 20.3575 191.742 20.7116ZM204.799 16.7273V18.9006H198.949V16.7273H204.799ZM200.174 14.5057H203.126V23.0842C203.126 23.2653 203.155 23.4122 203.211 23.5249C203.271 23.6335 203.358 23.712 203.47 23.7603C203.583 23.8046 203.718 23.8267 203.875 23.8267C203.988 23.8267 204.106 23.8166 204.231 23.7965C204.36 23.7724 204.456 23.7522 204.521 23.7361L204.968 25.8672C204.827 25.9074 204.628 25.9577 204.37 26.0181C204.116 26.0785 203.813 26.1167 203.458 26.1328C202.766 26.165 202.173 26.0845 201.677 25.8913C201.186 25.6941 200.81 25.3883 200.549 24.9737C200.291 24.5592 200.166 24.038 200.174 23.4102V14.5057ZM209.456 20.7116V26H206.504V13.6364H209.359V18.4297H209.462C209.671 17.8582 210.013 17.4115 210.488 17.0895C210.967 16.7675 211.553 16.6065 212.245 16.6065C212.897 16.6065 213.465 16.7514 213.948 17.0412C214.431 17.3269 214.805 17.7314 215.07 18.2546C215.34 18.7778 215.473 19.3896 215.469 20.0898V26H212.517V20.6694C212.521 20.1542 212.392 19.7518 212.13 19.462C211.869 19.1722 211.501 19.0273 211.026 19.0273C210.716 19.0273 210.442 19.0958 210.205 19.2326C209.971 19.3654 209.788 19.5566 209.655 19.8061C209.527 20.0556 209.46 20.3575 209.456 20.7116Z" fill="#00D845"/>
</g>
<defs>
<filter id="filter0_d_1_56" x="4" y="2" width="36" height="36" filterUnits="userSpaceOnUse" color-interpolation-filters="sRGB">
<feFlood flood-opacity="0" result="BackgroundImageFix"/>
<feColorMatrix in="SourceAlpha" type="matrix" values="0 0 0 0 0 0 0 0 0 0 0 0 0 0 0 0 0 0 127 0" result="hardAlpha"/>
<feOffset/>
<feGaussianBlur stdDeviation="2"/>
<feComposite in2="hardAlpha" operator="out"/>
<feColorMatrix type="matrix" values="0 0 0 0 0 0 0 0 0 0 0 0 0 0 0 0 0 0 0.25 0"/>
<feBlend mode="normal" in2="BackgroundImageFix" result="effect1_dropShadow_1_56"/>
<feBlend mode="normal" in="SourceGraphic" in2="effect1_dropShadow_1_56" result="shape"/>
</filter>
<filter id="filter1_d_1_56" x="36.2857" y="4.78571" width="186.429" height="30.599" filterUnits="userSpaceOnUse" color-interpolation-filters="sRGB">
<feFlood flood-opacity="0" result="BackgroundImageFix"/>
<feColorMatrix in="SourceAlpha" type="matrix" values="0 0 0 0 0 0 0 0 0 0 0 0 0 0 0 0 0 0 127 0" result="hardAlpha"/>
<feOffset/>
<feGaussianBlur stdDeviation="2.85714"/>
<feComposite in2="hardAlpha" operator="out"/>
<feColorMatrix type="matrix" values="0 0 0 0 0 0 0 0 0 0 0 0 0 0 0 0 0 0 0.25 0"/>
<feBlend mode="normal" in2="BackgroundImageFix" result="effect1_dropShadow_1_56"/>
<feBlend mode="normal" in="SourceGraphic" in2="effect1_dropShadow_1_56" result="shape"/>
</filter>
<linearGradient id="paint0_linear_1_56" x1="112.5" y1="0" x2="112.5" y2="40" gradientUnits="userSpaceOnUse">
<stop stop-color="#072C13"/>
<stop offset="1" stop-color="#041C0B"/>
</linearGradient>
<clipPath id="clip0_1_56">
<rect width="28" height="28" fill="white" transform="translate(8 6)"/>
</clipPath>
</defs>
</svg>
