<svg width="164" height="56" viewBox="0 0 164 56" fill="none" xmlns="http://www.w3.org/2000/svg">
<rect width="164" height="56" rx="8" fill="url(#paint0_linear_1_50)"/>
<rect x="1.05" y="1.05" width="161.9" height="53.9" rx="6.95" stroke="white" stroke-opacity="0.15" stroke-width="2.1"/>
<g clip-path="url(#clip0_1_50)">
<path d="M52 32.4444C52 40.7289 43.0456 45.7778 32 45.7778C20.9544 45.7778 12 40.7289 12 32.4444C12 24.16 20.9544 15.7778 32 15.7778C43.0456 15.7778 52 24.16 52 32.4444Z" fill="#C6E5B3"/>
<path d="M47.2833 22.0844C48.8033 20.8622 49.7778 18.99 49.7778 16.8889C49.7778 13.2078 46.7922 10.2222 43.1111 10.2222C39.9322 10.2222 37.2778 12.4489 36.61 15.4278C35.1789 14.8911 33.6289 14.5856 32 14.5856C30.3722 14.5856 28.8211 14.8911 27.39 15.4278C26.7222 12.4489 24.0678 10.2222 20.8889 10.2222C17.2078 10.2222 14.2222 13.2078 14.2222 16.8889C14.2222 18.99 15.1967 20.8622 16.7167 22.0844C13.7778 25.0622 12 28.7611 12 32.4444C12 40.7289 20.9544 33.5556 32 33.5556C43.0456 33.5556 52 40.7289 52 32.4444C52 28.7611 50.2222 25.0622 47.2833 22.0844Z" fill="#77B255"/>
<path d="M20.3333 20.2222C22.4811 20.2222 24.2222 18.4811 24.2222 16.3333C24.2222 14.1856 22.4811 12.4444 20.3333 12.4444C18.1856 12.4444 16.4444 14.1856 16.4444 16.3333C16.4444 18.4811 18.1856 20.2222 20.3333 20.2222Z" fill="white"/>
<path d="M20.3333 18C21.2538 18 22 17.2538 22 16.3333C22 15.4129 21.2538 14.6667 20.3333 14.6667C19.4129 14.6667 18.6667 15.4129 18.6667 16.3333C18.6667 17.2538 19.4129 18 20.3333 18Z" fill="#292F33"/>
<path d="M43.6667 20.2222C45.8144 20.2222 47.5555 18.4811 47.5555 16.3333C47.5555 14.1856 45.8144 12.4444 43.6667 12.4444C41.5189 12.4444 39.7778 14.1856 39.7778 16.3333C39.7778 18.4811 41.5189 20.2222 43.6667 20.2222Z" fill="white"/>
<path d="M43.6667 18C44.5871 18 45.3333 17.2538 45.3333 16.3333C45.3333 15.4129 44.5871 14.6667 43.6667 14.6667C42.7462 14.6667 42 15.4129 42 16.3333C42 17.2538 42.7462 18 43.6667 18Z" fill="#292F33"/>
<path d="M27.5556 31.3333C28.1692 31.3333 28.6667 30.8359 28.6667 30.2222C28.6667 29.6086 28.1692 29.1111 27.5556 29.1111C26.9419 29.1111 26.4444 29.6086 26.4444 30.2222C26.4444 30.8359 26.9419 31.3333 27.5556 31.3333Z" fill="#5C913B"/>
<path d="M36.4444 31.3333C37.0581 31.3333 37.5556 30.8359 37.5556 30.2222C37.5556 29.6086 37.0581 29.1111 36.4444 29.1111C35.8308 29.1111 35.3333 29.6086 35.3333 30.2222C35.3333 30.8359 35.8308 31.3333 36.4444 31.3333Z" fill="#5C913B"/>
</g>
<g filter="url(#filter0_d_1_50)">
<path d="M62.2614 24.5H60.3977L64.5852 12.8636H66.6136L70.8011 24.5H68.9375L65.6477 14.9773H65.5568L62.2614 24.5ZM62.5739 19.9432H68.6193V21.4205H62.5739V19.9432ZM78.7173 15.7727L75.5525 24.5H73.7344L70.5639 15.7727H72.3878L74.598 22.4886H74.6889L76.8935 15.7727H78.7173ZM82.6037 24.6932C82.0506 24.6932 81.5506 24.5909 81.1037 24.3864C80.6567 24.178 80.3025 23.8769 80.0412 23.483C79.7836 23.089 79.6548 22.6061 79.6548 22.0341C79.6548 21.5417 79.7495 21.1364 79.9389 20.8182C80.1283 20.5 80.384 20.2481 80.706 20.0625C81.0279 19.8769 81.3878 19.7367 81.7855 19.642C82.1832 19.5473 82.5885 19.4754 83.0014 19.4261C83.5241 19.3655 83.9484 19.3163 84.2741 19.2784C84.5999 19.2367 84.8366 19.1705 84.9844 19.0795C85.1321 18.9886 85.206 18.8409 85.206 18.6364V18.5966C85.206 18.1004 85.0658 17.7159 84.7855 17.4432C84.509 17.1705 84.0961 17.0341 83.5469 17.0341C82.9749 17.0341 82.5241 17.161 82.1946 17.4148C81.8688 17.6648 81.6435 17.9432 81.5185 18.25L79.9219 17.8864C80.1113 17.3561 80.3878 16.928 80.7514 16.6023C81.1188 16.2727 81.5412 16.0341 82.0185 15.8864C82.4957 15.7348 82.9976 15.6591 83.5241 15.6591C83.8726 15.6591 84.2419 15.7008 84.6321 15.7841C85.026 15.8636 85.3935 16.0114 85.7344 16.2273C86.0791 16.4432 86.3613 16.7519 86.581 17.1534C86.8006 17.5511 86.9105 18.0682 86.9105 18.7045V24.5H85.2514V23.3068H85.1832C85.0734 23.5265 84.9086 23.7424 84.6889 23.9545C84.4692 24.1667 84.187 24.3428 83.8423 24.483C83.4976 24.6231 83.0847 24.6932 82.6037 24.6932ZM82.973 23.3295C83.4427 23.3295 83.8442 23.2367 84.1775 23.0511C84.5147 22.8655 84.7703 22.6231 84.9446 22.3239C85.1226 22.0208 85.2116 21.697 85.2116 21.3523V20.2273C85.151 20.2879 85.0336 20.3447 84.8594 20.3977C84.6889 20.447 84.4938 20.4905 84.2741 20.5284C84.0544 20.5625 83.8404 20.5947 83.6321 20.625C83.4238 20.6515 83.2495 20.6742 83.1094 20.6932C82.7798 20.7348 82.4787 20.8049 82.206 20.9034C81.937 21.0019 81.7211 21.1439 81.5582 21.3295C81.3991 21.5114 81.3196 21.7538 81.3196 22.0568C81.3196 22.4773 81.4749 22.7955 81.7855 23.0114C82.0961 23.2235 82.4919 23.3295 82.973 23.3295ZM89.1733 24.5V15.7727H90.8721V24.5H89.1733ZM90.0312 14.4261C89.7358 14.4261 89.482 14.3277 89.2699 14.1307C89.0615 13.9299 88.9574 13.6913 88.9574 13.4148C88.9574 13.1345 89.0615 12.8958 89.2699 12.6989C89.482 12.4981 89.7358 12.3977 90.0312 12.3977C90.3267 12.3977 90.5786 12.4981 90.7869 12.6989C90.999 12.8958 91.1051 13.1345 91.1051 13.4148C91.1051 13.6913 90.999 13.9299 90.7869 14.1307C90.5786 14.3277 90.3267 14.4261 90.0312 14.4261ZM94.8565 12.8636V24.5H93.1577V12.8636H94.8565ZM99.6818 24.6932C99.1288 24.6932 98.6288 24.5909 98.1818 24.3864C97.7348 24.178 97.3807 23.8769 97.1193 23.483C96.8617 23.089 96.7329 22.6061 96.7329 22.0341C96.7329 21.5417 96.8276 21.1364 97.017 20.8182C97.2064 20.5 97.4621 20.2481 97.7841 20.0625C98.106 19.8769 98.4659 19.7367 98.8636 19.642C99.2613 19.5473 99.6666 19.4754 100.08 19.4261C100.602 19.3655 101.026 19.3163 101.352 19.2784C101.678 19.2367 101.915 19.1705 102.062 19.0795C102.21 18.9886 102.284 18.8409 102.284 18.6364V18.5966C102.284 18.1004 102.144 17.7159 101.864 17.4432C101.587 17.1705 101.174 17.0341 100.625 17.0341C100.053 17.0341 99.6023 17.161 99.2727 17.4148C98.947 17.6648 98.7216 17.9432 98.5966 18.25L97 17.8864C97.1894 17.3561 97.4659 16.928 97.8295 16.6023C98.197 16.2727 98.6193 16.0341 99.0966 15.8864C99.5738 15.7348 100.076 15.6591 100.602 15.6591C100.951 15.6591 101.32 15.7008 101.71 15.7841C102.104 15.8636 102.472 16.0114 102.812 16.2273C103.157 16.4432 103.439 16.7519 103.659 17.1534C103.879 17.5511 103.989 18.0682 103.989 18.7045V24.5H102.33V23.3068H102.261C102.151 23.5265 101.987 23.7424 101.767 23.9545C101.547 24.1667 101.265 24.3428 100.92 24.483C100.576 24.6231 100.163 24.6932 99.6818 24.6932ZM100.051 23.3295C100.521 23.3295 100.922 23.2367 101.256 23.0511C101.593 22.8655 101.848 22.6231 102.023 22.3239C102.201 22.0208 102.29 21.697 102.29 21.3523V20.2273C102.229 20.2879 102.112 20.3447 101.937 20.3977C101.767 20.447 101.572 20.4905 101.352 20.5284C101.133 20.5625 100.919 20.5947 100.71 20.625C100.502 20.6515 100.328 20.6742 100.187 20.6932C99.8579 20.7348 99.5568 20.8049 99.2841 20.9034C99.0151 21.0019 98.7992 21.1439 98.6363 21.3295C98.4773 21.5114 98.3977 21.7538 98.3977 22.0568C98.3977 22.4773 98.553 22.7955 98.8636 23.0114C99.1742 23.2235 99.5701 23.3295 100.051 23.3295ZM106.388 24.5V12.8636H108.087V17.1875H108.189C108.287 17.0057 108.429 16.7955 108.615 16.5568C108.801 16.3182 109.058 16.1098 109.388 15.9318C109.717 15.75 110.153 15.6591 110.695 15.6591C111.399 15.6591 112.028 15.8371 112.581 16.1932C113.134 16.5492 113.568 17.0625 113.882 17.733C114.2 18.4034 114.359 19.2102 114.359 20.1534C114.359 21.0966 114.202 21.9053 113.888 22.5795C113.573 23.25 113.142 23.767 112.592 24.1307C112.043 24.4905 111.416 24.6705 110.712 24.6705C110.181 24.6705 109.748 24.5814 109.41 24.4034C109.077 24.2254 108.816 24.017 108.626 23.7784C108.437 23.5398 108.291 23.3277 108.189 23.142H108.047V24.5H106.388ZM108.053 20.1364C108.053 20.75 108.142 21.2879 108.32 21.75C108.498 22.2121 108.755 22.5739 109.092 22.8352C109.429 23.0928 109.842 23.2216 110.331 23.2216C110.839 23.2216 111.263 23.0871 111.604 22.8182C111.945 22.5455 112.202 22.1761 112.376 21.7102C112.554 21.2443 112.643 20.7197 112.643 20.1364C112.643 19.5606 112.556 19.0436 112.382 18.5852C112.212 18.1269 111.954 17.7652 111.609 17.5C111.268 17.2348 110.842 17.1023 110.331 17.1023C109.839 17.1023 109.422 17.2292 109.081 17.483C108.744 17.7367 108.488 18.0909 108.314 18.5455C108.14 19 108.053 19.5303 108.053 20.1364ZM117.966 12.8636V24.5H116.267V12.8636H117.966ZM124.013 24.6761C123.153 24.6761 122.412 24.4924 121.791 24.125C121.174 23.7538 120.696 23.233 120.359 22.5625C120.026 21.8883 119.859 21.0985 119.859 20.1932C119.859 19.2992 120.026 18.5114 120.359 17.8295C120.696 17.1477 121.166 16.6155 121.768 16.233C122.375 15.8504 123.083 15.6591 123.893 15.6591C124.386 15.6591 124.863 15.7405 125.325 15.9034C125.787 16.0663 126.202 16.322 126.57 16.6705C126.937 17.0189 127.227 17.4716 127.439 18.0284C127.651 18.5814 127.757 19.2538 127.757 20.0455V20.6477H120.82V19.375H126.092C126.092 18.928 126.001 18.5322 125.82 18.1875C125.638 17.839 125.382 17.5644 125.053 17.3636C124.727 17.1629 124.344 17.0625 123.905 17.0625C123.428 17.0625 123.011 17.1799 122.655 17.4148C122.303 17.6458 122.03 17.9489 121.837 18.3239C121.647 18.6951 121.553 19.0985 121.553 19.5341V20.5284C121.553 21.1117 121.655 21.608 121.859 22.017C122.068 22.4261 122.357 22.7386 122.729 22.9545C123.1 23.1667 123.534 23.2727 124.03 23.2727C124.352 23.2727 124.645 23.2273 124.91 23.1364C125.176 23.0417 125.405 22.9015 125.598 22.7159C125.791 22.5303 125.939 22.3011 126.041 22.0284L127.649 22.3182C127.52 22.7917 127.289 23.2064 126.956 23.5625C126.626 23.9148 126.212 24.1894 125.712 24.3864C125.215 24.5795 124.649 24.6761 124.013 24.6761ZM137.553 24.6761C136.734 24.6761 136.02 24.4886 135.41 24.1136C134.801 23.7386 134.327 23.214 133.99 22.5398C133.653 21.8655 133.484 21.0777 133.484 20.1761C133.484 19.2708 133.653 18.4792 133.99 17.8011C134.327 17.1231 134.801 16.5966 135.41 16.2216C136.02 15.8466 136.734 15.6591 137.553 15.6591C138.371 15.6591 139.085 15.8466 139.695 16.2216C140.304 16.5966 140.778 17.1231 141.115 17.8011C141.452 18.4792 141.621 19.2708 141.621 20.1761C141.621 21.0777 141.452 21.8655 141.115 22.5398C140.778 23.214 140.304 23.7386 139.695 24.1136C139.085 24.4886 138.371 24.6761 137.553 24.6761ZM137.558 23.25C138.089 23.25 138.528 23.1098 138.876 22.8295C139.225 22.5492 139.482 22.1761 139.649 21.7102C139.82 21.2443 139.905 20.7311 139.905 20.1705C139.905 19.6136 139.82 19.1023 139.649 18.6364C139.482 18.1667 139.225 17.7898 138.876 17.5057C138.528 17.2216 138.089 17.0795 137.558 17.0795C137.024 17.0795 136.581 17.2216 136.229 17.5057C135.88 17.7898 135.621 18.1667 135.45 18.6364C135.284 19.1023 135.2 19.6136 135.2 20.1705C135.2 20.7311 135.284 21.2443 135.45 21.7102C135.621 22.1761 135.88 22.5492 136.229 22.8295C136.581 23.1098 137.024 23.25 137.558 23.25ZM145.216 19.3182V24.5H143.517V15.7727H145.148V17.1932H145.256C145.456 16.7311 145.771 16.3598 146.199 16.0795C146.631 15.7992 147.174 15.6591 147.83 15.6591C148.424 15.6591 148.945 15.7841 149.392 16.0341C149.839 16.2803 150.186 16.6477 150.432 17.1364C150.678 17.625 150.801 18.2292 150.801 18.9489V24.5H149.102V19.1534C149.102 18.5208 148.937 18.0265 148.608 17.6705C148.278 17.3106 147.826 17.1307 147.25 17.1307C146.856 17.1307 146.506 17.2159 146.199 17.3864C145.896 17.5568 145.655 17.8068 145.477 18.1364C145.303 18.4621 145.216 18.8561 145.216 19.3182Z" fill="#E8E8E8"/>
<path d="M60.9357 43.5V31.1364H69.3753V33.5632H63.924V36.0987H68.8381V38.5316H63.924V43.5H60.9357ZM70.6974 43.5V34.2273H73.565V35.9176H73.6616C73.8306 35.3059 74.1063 34.8511 74.4886 34.5533C74.871 34.2514 75.3157 34.1005 75.8228 34.1005C75.9596 34.1005 76.1005 34.1106 76.2454 34.1307C76.3903 34.1468 76.5251 34.1729 76.6498 34.2092V36.7749C76.509 36.7266 76.3239 36.6883 76.0944 36.6602C75.8691 36.632 75.6678 36.6179 75.4908 36.6179C75.1406 36.6179 74.8247 36.6964 74.543 36.8533C74.2653 37.0063 74.0459 37.2216 73.8849 37.4993C73.728 37.773 73.6495 38.0949 73.6495 38.4652V43.5H70.6974ZM81.6997 43.6751C80.7258 43.6751 79.8887 43.4758 79.1884 43.0774C78.4921 42.6749 77.9548 42.1155 77.5765 41.3991C77.2022 40.6787 77.0151 39.8436 77.0151 38.8938C77.0151 37.94 77.2022 37.1049 77.5765 36.3885C77.9548 35.6681 78.4921 35.1087 79.1884 34.7102C79.8887 34.3078 80.7258 34.1065 81.6997 34.1065C82.6737 34.1065 83.5088 34.3078 84.2051 34.7102C84.9053 35.1087 85.4426 35.6681 85.8169 36.3885C86.1952 37.1049 86.3844 37.94 86.3844 38.8938C86.3844 39.8436 86.1952 40.6787 85.8169 41.3991C85.4426 42.1155 84.9053 42.6749 84.2051 43.0774C83.5088 43.4758 82.6737 43.6751 81.6997 43.6751ZM81.7178 41.4474C82.072 41.4474 82.3718 41.3388 82.6174 41.1214C82.8629 40.9041 83.05 40.6023 83.1788 40.2159C83.3116 39.8295 83.378 39.3828 83.378 38.8757C83.378 38.3606 83.3116 37.9098 83.1788 37.5234C83.05 37.1371 82.8629 36.8352 82.6174 36.6179C82.3718 36.4006 82.072 36.2919 81.7178 36.2919C81.3516 36.2919 81.0417 36.4006 80.7882 36.6179C80.5386 36.8352 80.3475 37.1371 80.2147 37.5234C80.0859 37.9098 80.0215 38.3606 80.0215 38.8757C80.0215 39.3828 80.0859 39.8295 80.2147 40.2159C80.3475 40.6023 80.5386 40.9041 80.7882 41.1214C81.0417 41.3388 81.3516 41.4474 81.7178 41.4474ZM92.2191 47.1704C91.3377 47.1704 90.5831 47.0477 89.9552 46.8022C89.3274 46.5567 88.8344 46.2206 88.4762 45.794C88.118 45.3674 87.9027 44.8845 87.8302 44.3452L90.6253 44.1882C90.6777 44.3774 90.7742 44.5424 90.9151 44.6832C91.06 44.8241 91.2471 44.9328 91.4765 45.0092C91.71 45.0857 91.9836 45.1239 92.2976 45.1239C92.7926 45.1239 93.2011 45.0032 93.5231 44.7617C93.8491 44.5243 94.0121 44.1077 94.0121 43.5121V41.8821H93.9094C93.7927 42.1678 93.6156 42.4234 93.3782 42.6488C93.1407 42.8742 92.8449 43.0512 92.4907 43.18C92.1406 43.3088 91.7381 43.3732 91.2834 43.3732C90.6072 43.3732 89.9874 43.2163 89.424 42.9023C88.8646 42.5844 88.4158 42.0934 88.0778 41.4293C87.7437 40.7612 87.5767 39.902 87.5767 38.8516C87.5767 37.7689 87.7497 36.8775 88.0959 36.1772C88.442 35.4729 88.8948 34.9517 89.4542 34.6136C90.0176 34.2756 90.6233 34.1065 91.2713 34.1065C91.7583 34.1065 92.1748 34.191 92.5209 34.3601C92.8711 34.5251 93.1588 34.7384 93.3842 35C93.6096 35.2616 93.7806 35.5333 93.8974 35.815H93.9819V34.2273H96.9219V43.5362C96.9219 44.321 96.7247 44.9831 96.3302 45.5224C95.9358 46.0617 95.3845 46.4702 94.6761 46.7479C93.9678 47.0296 93.1488 47.1704 92.2191 47.1704ZM92.3096 41.2241C92.6678 41.2241 92.9737 41.1295 93.2273 40.9403C93.4808 40.7512 93.676 40.4795 93.8128 40.1253C93.9497 39.7712 94.0181 39.3466 94.0181 38.8516C94.0181 38.3485 93.9497 37.9158 93.8128 37.5536C93.68 37.1874 93.4848 36.9057 93.2273 36.7084C92.9737 36.5112 92.6678 36.4126 92.3096 36.4126C91.9434 36.4126 91.6335 36.5133 91.38 36.7145C91.1264 36.9157 90.9332 37.1995 90.8004 37.5657C90.6716 37.9279 90.6072 38.3565 90.6072 38.8516C90.6072 39.3466 90.6736 39.7712 90.8064 40.1253C90.9393 40.4795 91.1304 40.7512 91.38 40.9403C91.6335 41.1295 91.9434 41.2241 92.3096 41.2241ZM98.8039 43.5V34.2273H101.671V35.9176H101.768C101.937 35.3059 102.213 34.8511 102.595 34.5533C102.977 34.2514 103.422 34.1005 103.929 34.1005C104.066 34.1005 104.207 34.1106 104.352 34.1307C104.497 34.1468 104.632 34.1729 104.756 34.2092V36.7749C104.615 36.7266 104.43 36.6883 104.201 36.6602C103.976 36.632 103.774 36.6179 103.597 36.6179C103.247 36.6179 102.931 36.6964 102.649 36.8533C102.372 37.0063 102.152 37.2216 101.991 37.4993C101.834 37.773 101.756 38.0949 101.756 38.4652V43.5H98.8039ZM105.959 43.5V34.2273H108.911V43.5H105.959ZM107.438 33.1467C107.024 33.1467 106.667 33.0098 106.37 32.7361C106.072 32.4584 105.923 32.1244 105.923 31.734C105.923 31.3477 106.072 31.0176 106.37 30.744C106.667 30.4663 107.024 30.3274 107.438 30.3274C107.857 30.3274 108.213 30.4663 108.507 30.744C108.805 31.0176 108.953 31.3477 108.953 31.734C108.953 32.1244 108.805 32.4584 108.507 32.7361C108.213 33.0098 107.857 33.1467 107.438 33.1467ZM113.742 38.2116V43.5H110.79V34.2273H113.597V35.9297H113.7C113.905 35.3622 114.255 34.9175 114.75 34.5955C115.245 34.2695 115.835 34.1065 116.519 34.1065C117.171 34.1065 117.737 34.2534 118.216 34.5472C118.699 34.837 119.073 35.2435 119.338 35.7667C119.608 36.2859 119.741 36.8936 119.737 37.5898V43.5H116.785V38.1694C116.789 37.6542 116.658 37.2518 116.392 36.962C116.131 36.6722 115.767 36.5273 115.3 36.5273C114.99 36.5273 114.716 36.5958 114.479 36.7326C114.245 36.8654 114.064 37.0566 113.935 37.3061C113.811 37.5556 113.746 37.8575 113.742 38.2116ZM126.799 34.2273V36.4006H120.949V34.2273H126.799ZM122.174 32.0057H125.126V40.5842C125.126 40.7653 125.155 40.9122 125.211 41.0249C125.271 41.1335 125.358 41.212 125.47 41.2603C125.583 41.3046 125.718 41.3267 125.875 41.3267C125.988 41.3267 126.106 41.3166 126.231 41.2965C126.36 41.2724 126.457 41.2522 126.521 41.2361L126.968 43.3672C126.827 43.4074 126.628 43.4577 126.37 43.5181C126.116 43.5785 125.813 43.6167 125.458 43.6328C124.766 43.665 124.173 43.5845 123.678 43.3913C123.187 43.1941 122.81 42.8883 122.549 42.4737C122.291 42.0592 122.166 41.538 122.174 40.9102V32.0057ZM131.456 38.2116V43.5H128.504V31.1364H131.36V35.9297H131.462C131.671 35.3582 132.014 34.9115 132.488 34.5895C132.967 34.2675 133.553 34.1065 134.245 34.1065C134.897 34.1065 135.465 34.2514 135.948 34.5412C136.431 34.8269 136.805 35.2314 137.07 35.7546C137.34 36.2778 137.473 36.8896 137.469 37.5898V43.5H134.517V38.1694C134.521 37.6542 134.392 37.2518 134.13 36.962C133.869 36.6722 133.501 36.5273 133.026 36.5273C132.716 36.5273 132.442 36.5958 132.205 36.7326C131.971 36.8654 131.788 37.0566 131.655 37.3061C131.527 37.5556 131.46 37.8575 131.456 38.2116Z" fill="#00D845"/>
</g>
<defs>
<filter id="filter0_d_1_50" x="54.4" y="3.9" width="103.2" height="48.8704" filterUnits="userSpaceOnUse" color-interpolation-filters="sRGB">
<feFlood flood-opacity="0" result="BackgroundImageFix"/>
<feColorMatrix in="SourceAlpha" type="matrix" values="0 0 0 0 0 0 0 0 0 0 0 0 0 0 0 0 0 0 127 0" result="hardAlpha"/>
<feOffset/>
<feGaussianBlur stdDeviation="2.8"/>
<feComposite in2="hardAlpha" operator="out"/>
<feColorMatrix type="matrix" values="0 0 0 0 0 0 0 0 0 0 0 0 0 0 0 0 0 0 0.25 0"/>
<feBlend mode="normal" in2="BackgroundImageFix" result="effect1_dropShadow_1_50"/>
<feBlend mode="normal" in="SourceGraphic" in2="effect1_dropShadow_1_50" result="shape"/>
</filter>
<linearGradient id="paint0_linear_1_50" x1="82" y1="0" x2="82" y2="56" gradientUnits="userSpaceOnUse">
<stop stop-color="#072C13"/>
<stop offset="1" stop-color="#041C0B"/>
</linearGradient>
<clipPath id="clip0_1_50">
<rect width="40" height="40" fill="white" transform="translate(12 8)"/>
</clipPath>
</defs>
</svg>
