<svg width="56" height="56" viewBox="0 0 56 56" fill="none" xmlns="http://www.w3.org/2000/svg">
<rect width="56" height="56" rx="8.4" fill="url(#paint0_linear_1_62)"/>
<rect x="1.05" y="1.05" width="53.9" height="53.9" rx="7.35" stroke="white" stroke-opacity="0.15" stroke-width="2.1"/>
<g filter="url(#filter0_d_1_62)">
<g clip-path="url(#clip0_1_62)">
<path d="M48 32.4444C48 40.7289 39.0456 45.7778 28 45.7778C16.9544 45.7778 8 40.7289 8 32.4444C8 24.16 16.9544 15.7778 28 15.7778C39.0456 15.7778 48 24.16 48 32.4444Z" fill="#C6E5B3"/>
<path d="M43.2833 22.0844C44.8033 20.8622 45.7778 18.99 45.7778 16.8889C45.7778 13.2078 42.7922 10.2222 39.1111 10.2222C35.9322 10.2222 33.2778 12.4489 32.61 15.4278C31.1789 14.8911 29.6289 14.5856 28 14.5856C26.3722 14.5856 24.8211 14.8911 23.39 15.4278C22.7222 12.4489 20.0678 10.2222 16.8889 10.2222C13.2078 10.2222 10.2222 13.2078 10.2222 16.8889C10.2222 18.99 11.1967 20.8622 12.7167 22.0844C9.77778 25.0622 8 28.7611 8 32.4444C8 40.7289 16.9544 33.5556 28 33.5556C39.0456 33.5556 48 40.7289 48 32.4444C48 28.7611 46.2222 25.0622 43.2833 22.0844Z" fill="#77B255"/>
<path d="M16.3333 20.2222C18.4811 20.2222 20.2222 18.4811 20.2222 16.3333C20.2222 14.1856 18.4811 12.4444 16.3333 12.4444C14.1856 12.4444 12.4444 14.1856 12.4444 16.3333C12.4444 18.4811 14.1856 20.2222 16.3333 20.2222Z" fill="white"/>
<path d="M16.3333 18C17.2538 18 18 17.2538 18 16.3333C18 15.4129 17.2538 14.6667 16.3333 14.6667C15.4129 14.6667 14.6667 15.4129 14.6667 16.3333C14.6667 17.2538 15.4129 18 16.3333 18Z" fill="#292F33"/>
<path d="M39.6667 20.2222C41.8144 20.2222 43.5556 18.4811 43.5556 16.3333C43.5556 14.1856 41.8144 12.4444 39.6667 12.4444C37.5189 12.4444 35.7778 14.1856 35.7778 16.3333C35.7778 18.4811 37.5189 20.2222 39.6667 20.2222Z" fill="white"/>
<path d="M39.6667 18C40.5871 18 41.3333 17.2538 41.3333 16.3333C41.3333 15.4129 40.5871 14.6667 39.6667 14.6667C38.7462 14.6667 38 15.4129 38 16.3333C38 17.2538 38.7462 18 39.6667 18Z" fill="#292F33"/>
<path d="M23.5556 31.3333C24.1692 31.3333 24.6667 30.8359 24.6667 30.2222C24.6667 29.6086 24.1692 29.1111 23.5556 29.1111C22.9419 29.1111 22.4444 29.6086 22.4444 30.2222C22.4444 30.8359 22.9419 31.3333 23.5556 31.3333Z" fill="#5C913B"/>
<path d="M32.4444 31.3333C33.0581 31.3333 33.5556 30.8359 33.5556 30.2222C33.5556 29.6086 33.0581 29.1111 32.4444 29.1111C31.8308 29.1111 31.3333 29.6086 31.3333 30.2222C31.3333 30.8359 31.8308 31.3333 32.4444 31.3333Z" fill="#5C913B"/>
</g>
</g>
<defs>
<filter id="filter0_d_1_62" x="2.28571" y="2.28571" width="51.4286" height="51.4286" filterUnits="userSpaceOnUse" color-interpolation-filters="sRGB">
<feFlood flood-opacity="0" result="BackgroundImageFix"/>
<feColorMatrix in="SourceAlpha" type="matrix" values="0 0 0 0 0 0 0 0 0 0 0 0 0 0 0 0 0 0 127 0" result="hardAlpha"/>
<feOffset/>
<feGaussianBlur stdDeviation="2.85714"/>
<feComposite in2="hardAlpha" operator="out"/>
<feColorMatrix type="matrix" values="0 0 0 0 0 0 0 0 0 0 0 0 0 0 0 0 0 0 0.25 0"/>
<feBlend mode="normal" in2="BackgroundImageFix" result="effect1_dropShadow_1_62"/>
<feBlend mode="normal" in="SourceGraphic" in2="effect1_dropShadow_1_62" result="shape"/>
</filter>
<linearGradient id="paint0_linear_1_62" x1="28" y1="0" x2="28" y2="56" gradientUnits="userSpaceOnUse">
<stop stop-color="#072C13"/>
<stop offset="1" stop-color="#041C0B"/>
</linearGradient>
<clipPath id="clip0_1_62">
<rect width="40" height="40" fill="white" transform="translate(8 8)"/>
</clipPath>
</defs>
</svg>
