<svg width="204" height="57" viewBox="0 0 204 57" fill="none" xmlns="http://www.w3.org/2000/svg">
<rect width="203.528" height="56.475" rx="8" fill="url(#paint0_linear_1_50)"/>
<rect x="1.05" y="1.05" width="201.428" height="54.375" rx="6.95" stroke="white" stroke-opacity="0.15" stroke-width="2.1"/>
<g filter="url(#filter0_d_1_50)">
<path d="M49.6351 18.4299L32.7638 28.2375M32.7638 28.2375L15.6381 18.8819M32.7638 28.2375L33.0196 47.5133M50.8715 36.2331L50.6529 19.7633C50.6437 19.0681 50.6391 18.7204 50.534 18.4117C50.4411 18.1386 50.2916 17.8888 50.096 17.679C49.8747 17.4418 49.573 17.2769 48.9694 16.9473L34.06 8.80242C33.4886 8.49027 33.2029 8.33419 32.9019 8.2755C32.6352 8.22359 32.3612 8.22723 32.0962 8.28621C31.7967 8.35288 31.5152 8.5165 30.9523 8.84374L16.2642 17.382C15.6697 17.7276 15.3725 17.9004 15.1576 18.1434C14.9675 18.3584 14.8248 18.6121 14.7391 18.8876C14.6423 19.199 14.6469 19.5466 14.6561 20.2418L14.8747 36.7116C14.8839 37.407 14.8885 37.7545 14.9936 38.0632C15.0865 38.3364 15.2359 38.5862 15.4316 38.7959C15.6529 39.0332 15.9547 39.1981 16.5581 39.5277L31.4676 47.6726C32.039 47.9848 32.3247 48.1407 32.6259 48.1994C32.8924 48.2515 33.1664 48.2478 33.4316 48.1887C33.7309 48.122 34.0124 47.9586 34.5753 47.6312L49.2633 39.093C49.858 38.7474 50.1551 38.5746 50.3701 38.3314C50.5601 38.1166 50.7029 37.8629 50.7884 37.5874C50.8853 37.276 50.8807 36.9284 50.8715 36.2331Z" stroke="#D9D9D9" stroke-width="3" stroke-linecap="round" stroke-linejoin="round"/>
</g>
<g filter="url(#filter1_d_1_50)">
<path d="M62.806 13.1012H64.9367L68.6412 22.1466H68.7776L72.4821 13.1012H74.6128V24.7375H72.9424V16.3171H72.8344L69.4026 24.7205H68.0162L64.5844 16.3114H64.4765V24.7375H62.806V13.1012ZM77.029 24.7375V16.0102H78.7279V24.7375H77.029ZM77.887 14.6636C77.5915 14.6636 77.3377 14.5652 77.1256 14.3682C76.9173 14.1674 76.8131 13.9288 76.8131 13.6523C76.8131 13.372 76.9173 13.1333 77.1256 12.9364C77.3377 12.7356 77.5915 12.6352 77.887 12.6352C78.1824 12.6352 78.4343 12.7356 78.6426 12.9364C78.8548 13.1333 78.9608 13.372 78.9608 13.6523C78.9608 13.9288 78.8548 14.1674 78.6426 14.3682C78.4343 14.5652 78.1824 14.6636 77.887 14.6636ZM87.5531 18.1409L86.0134 18.4136C85.949 18.2167 85.8467 18.0292 85.7066 17.8511C85.5702 17.6731 85.3846 17.5273 85.1497 17.4136C84.9149 17.3 84.6213 17.2432 84.2691 17.2432C83.788 17.2432 83.3865 17.3511 83.0645 17.5671C82.7425 17.7792 82.5816 18.0538 82.5816 18.3909C82.5816 18.6826 82.6895 18.9174 82.9054 19.0955C83.1213 19.2735 83.4698 19.4193 83.9509 19.533L85.3372 19.8511C86.1403 20.0368 86.7388 20.3227 87.1327 20.7091C87.5266 21.0955 87.7236 21.5974 87.7236 22.2148C87.7236 22.7375 87.5721 23.2034 87.2691 23.6125C86.9698 24.0178 86.5513 24.336 86.0134 24.5671C85.4793 24.7981 84.86 24.9136 84.1554 24.9136C83.1781 24.9136 82.3808 24.7053 81.7634 24.2886C81.146 23.8682 80.7672 23.2716 80.627 22.4989L82.2691 22.2489C82.3713 22.6769 82.5816 23.0008 82.8997 23.2205C83.2179 23.4364 83.6327 23.5443 84.1441 23.5443C84.7009 23.5443 85.146 23.4288 85.4793 23.1977C85.8126 22.9629 85.9793 22.6769 85.9793 22.3398C85.9793 22.0671 85.877 21.8379 85.6725 21.6523C85.4717 21.4667 85.163 21.3265 84.7463 21.2318L83.2691 20.908C82.4547 20.7224 81.8524 20.4269 81.4622 20.0216C81.0759 19.6163 80.8827 19.103 80.8827 18.4818C80.8827 17.9667 81.0266 17.5159 81.3145 17.1296C81.6024 16.7432 82.0001 16.4421 82.5077 16.2261C83.0153 16.0065 83.5967 15.8966 84.252 15.8966C85.1952 15.8966 85.9376 16.1011 86.4793 16.5102C87.021 16.9155 87.3789 17.4591 87.5531 18.1409ZM96.1313 18.1409L94.5915 18.4136C94.5271 18.2167 94.4248 18.0292 94.2847 17.8511C94.1483 17.6731 93.9627 17.5273 93.7279 17.4136C93.493 17.3 93.1995 17.2432 92.8472 17.2432C92.3661 17.2432 91.9646 17.3511 91.6426 17.5671C91.3207 17.7792 91.1597 18.0538 91.1597 18.3909C91.1597 18.6826 91.2676 18.9174 91.4835 19.0955C91.6995 19.2735 92.0479 19.4193 92.529 19.533L93.9154 19.8511C94.7184 20.0368 95.3169 20.3227 95.7108 20.7091C96.1048 21.0955 96.3017 21.5974 96.3017 22.2148C96.3017 22.7375 96.1502 23.2034 95.8472 23.6125C95.5479 24.0178 95.1294 24.336 94.5915 24.5671C94.0574 24.7981 93.4381 24.9136 92.7335 24.9136C91.7563 24.9136 90.9589 24.7053 90.3415 24.2886C89.7241 23.8682 89.3453 23.2716 89.2051 22.4989L90.8472 22.2489C90.9495 22.6769 91.1597 23.0008 91.4779 23.2205C91.796 23.4364 92.2108 23.5443 92.7222 23.5443C93.279 23.5443 93.7241 23.4288 94.0574 23.1977C94.3907 22.9629 94.5574 22.6769 94.5574 22.3398C94.5574 22.0671 94.4551 21.8379 94.2506 21.6523C94.0498 21.4667 93.7411 21.3265 93.3245 21.2318L91.8472 20.908C91.0328 20.7224 90.4305 20.4269 90.0404 20.0216C89.654 19.6163 89.4608 19.103 89.4608 18.4818C89.4608 17.9667 89.6048 17.5159 89.8926 17.1296C90.1805 16.7432 90.5782 16.4421 91.0858 16.2261C91.5934 16.0065 92.1748 15.8966 92.8301 15.8966C93.7733 15.8966 94.5157 16.1011 95.0574 16.5102C95.5991 16.9155 95.957 17.4591 96.1313 18.1409ZM98.1696 24.7375V16.0102H99.8685V24.7375H98.1696ZM99.0276 14.6636C98.7321 14.6636 98.4783 14.5652 98.2662 14.3682C98.0579 14.1674 97.9537 13.9288 97.9537 13.6523C97.9537 13.372 98.0579 13.1333 98.2662 12.9364C98.4783 12.7356 98.7321 12.6352 99.0276 12.6352C99.323 12.6352 99.5749 12.7356 99.7833 12.9364C99.9954 13.1333 100.101 13.372 100.101 13.6523C100.101 13.9288 99.9954 14.1674 99.7833 14.3682C99.5749 14.5652 99.323 14.6636 99.0276 14.6636ZM103.853 19.5557V24.7375H102.154V16.0102H103.785V17.4307H103.893C104.093 16.9686 104.408 16.5974 104.836 16.3171C105.268 16.0368 105.811 15.8966 106.466 15.8966C107.061 15.8966 107.582 16.0216 108.029 16.2716C108.476 16.5178 108.823 16.8852 109.069 17.3739C109.315 17.8625 109.438 18.4667 109.438 19.1864V24.7375H107.739V19.3909C107.739 18.7583 107.574 18.264 107.245 17.908C106.915 17.5481 106.463 17.3682 105.887 17.3682C105.493 17.3682 105.143 17.4534 104.836 17.6239C104.533 17.7943 104.292 18.0443 104.114 18.3739C103.94 18.6996 103.853 19.0936 103.853 19.5557ZM115.376 28.1921C114.682 28.1921 114.086 28.1011 113.586 27.9193C113.09 27.7375 112.684 27.497 112.37 27.1977C112.056 26.8985 111.821 26.5708 111.665 26.2148L113.126 25.6125C113.228 25.7792 113.364 25.9553 113.535 26.1409C113.709 26.3303 113.944 26.4913 114.239 26.6239C114.538 26.7564 114.923 26.8227 115.393 26.8227C116.037 26.8227 116.569 26.6655 116.989 26.3511C117.41 26.0405 117.62 25.5443 117.62 24.8625V23.1466H117.512C117.41 23.3322 117.262 23.5386 117.069 23.7659C116.879 23.9932 116.618 24.1902 116.285 24.3568C115.951 24.5235 115.518 24.6068 114.984 24.6068C114.294 24.6068 113.673 24.4458 113.12 24.1239C112.571 23.7981 112.135 23.319 111.813 22.6864C111.495 22.05 111.336 21.2678 111.336 20.3398C111.336 19.4118 111.493 18.6163 111.807 17.9534C112.126 17.2905 112.561 16.783 113.114 16.4307C113.667 16.0746 114.294 15.8966 114.995 15.8966C115.537 15.8966 115.974 15.9875 116.307 16.1693C116.641 16.3474 116.9 16.5557 117.086 16.7943C117.275 17.033 117.421 17.2432 117.523 17.425H117.648V16.0102H119.313V24.9307C119.313 25.6807 119.139 26.2962 118.79 26.7773C118.442 27.2583 117.97 27.6144 117.376 27.8455C116.785 28.0765 116.118 28.1921 115.376 28.1921ZM115.359 23.1977C115.847 23.1977 116.26 23.0841 116.597 22.8568C116.938 22.6258 117.196 22.2962 117.37 21.8682C117.548 21.4364 117.637 20.9193 117.637 20.3171C117.637 19.7299 117.55 19.2129 117.376 18.7659C117.201 18.319 116.946 17.9705 116.609 17.7205C116.271 17.4667 115.855 17.3398 115.359 17.3398C114.847 17.3398 114.421 17.4724 114.08 17.7375C113.739 17.9989 113.482 18.3549 113.307 18.8057C113.137 19.2565 113.052 19.7602 113.052 20.3171C113.052 20.889 113.139 21.3909 113.313 21.8227C113.487 22.2546 113.745 22.5917 114.086 22.8341C114.431 23.0765 114.855 23.1977 115.359 23.1977ZM126.979 13.1012L130.218 22.5784H130.349L133.587 13.1012H135.485L131.297 24.7375H129.269L125.082 13.1012H126.979ZM139.915 24.9136C139.056 24.9136 138.315 24.7299 137.694 24.3625C137.076 23.9913 136.599 23.4705 136.262 22.8C135.929 22.1258 135.762 21.336 135.762 20.4307C135.762 19.5368 135.929 18.7489 136.262 18.0671C136.599 17.3852 137.069 16.853 137.671 16.4705C138.277 16.0879 138.985 15.8966 139.796 15.8966C140.288 15.8966 140.766 15.978 141.228 16.1409C141.69 16.3038 142.105 16.5595 142.472 16.908C142.84 17.2565 143.129 17.7091 143.341 18.2659C143.554 18.819 143.66 19.4913 143.66 20.283V20.8852H136.722V19.6125H141.995C141.995 19.1655 141.904 18.7697 141.722 18.425C141.54 18.0765 141.285 17.8019 140.955 17.6011C140.629 17.4004 140.247 17.3 139.807 17.3C139.33 17.3 138.913 17.4174 138.557 17.6523C138.205 17.8833 137.932 18.1864 137.739 18.5614C137.55 18.9326 137.455 19.336 137.455 19.7716V20.7659C137.455 21.3493 137.557 21.8455 137.762 22.2546C137.97 22.6636 138.26 22.9761 138.631 23.1921C139.002 23.4042 139.436 23.5102 139.932 23.5102C140.254 23.5102 140.548 23.4648 140.813 23.3739C141.078 23.2792 141.307 23.139 141.501 22.9534C141.694 22.7678 141.841 22.5386 141.944 22.2659L143.552 22.5557C143.423 23.0292 143.192 23.444 142.859 23.8C142.529 24.1523 142.114 24.4269 141.614 24.6239C141.118 24.8171 140.552 24.9136 139.915 24.9136ZM145.545 24.7375V16.0102H147.187V17.3966H147.278C147.437 16.9269 147.717 16.5576 148.118 16.2886C148.524 16.0159 148.982 15.8796 149.493 15.8796C149.6 15.8796 149.725 15.8833 149.868 15.8909C150.016 15.8985 150.132 15.908 150.215 15.9193V17.5443C150.147 17.5254 150.026 17.5046 149.851 17.4818C149.677 17.4553 149.503 17.4421 149.329 17.4421C148.927 17.4421 148.569 17.5273 148.255 17.6977C147.944 17.8644 147.698 18.0974 147.516 18.3966C147.334 18.6921 147.243 19.0292 147.243 19.408V24.7375H145.545ZM158.225 18.1409L156.685 18.4136C156.621 18.2167 156.519 18.0292 156.378 17.8511C156.242 17.6731 156.056 17.5273 155.822 17.4136C155.587 17.3 155.293 17.2432 154.941 17.2432C154.46 17.2432 154.058 17.3511 153.736 17.5671C153.414 17.7792 153.253 18.0538 153.253 18.3909C153.253 18.6826 153.361 18.9174 153.577 19.0955C153.793 19.2735 154.142 19.4193 154.623 19.533L156.009 19.8511C156.812 20.0368 157.411 20.3227 157.805 20.7091C158.198 21.0955 158.395 21.5974 158.395 22.2148C158.395 22.7375 158.244 23.2034 157.941 23.6125C157.642 24.0178 157.223 24.336 156.685 24.5671C156.151 24.7981 155.532 24.9136 154.827 24.9136C153.85 24.9136 153.053 24.7053 152.435 24.2886C151.818 23.8682 151.439 23.2716 151.299 22.4989L152.941 22.2489C153.043 22.6769 153.253 23.0008 153.572 23.2205C153.89 23.4364 154.305 23.5443 154.816 23.5443C155.373 23.5443 155.818 23.4288 156.151 23.1977C156.484 22.9629 156.651 22.6769 156.651 22.3398C156.651 22.0671 156.549 21.8379 156.344 21.6523C156.144 21.4667 155.835 21.3265 155.418 21.2318L153.941 20.908C153.127 20.7224 152.524 20.4269 152.134 20.0216C151.748 19.6163 151.555 19.103 151.555 18.4818C151.555 17.9667 151.698 17.5159 151.986 17.1296C152.274 16.7432 152.672 16.4421 153.18 16.2261C153.687 16.0065 154.269 15.8966 154.924 15.8966C155.867 15.8966 156.609 16.1011 157.151 16.5102C157.693 16.9155 158.051 17.4591 158.225 18.1409ZM160.263 24.7375V16.0102H161.962V24.7375H160.263ZM161.121 14.6636C160.826 14.6636 160.572 14.5652 160.36 14.3682C160.152 14.1674 160.047 13.9288 160.047 13.6523C160.047 13.372 160.152 13.1333 160.36 12.9364C160.572 12.7356 160.826 12.6352 161.121 12.6352C161.417 12.6352 161.669 12.7356 161.877 12.9364C162.089 13.1333 162.195 13.372 162.195 13.6523C162.195 13.9288 162.089 14.1674 161.877 14.3682C161.669 14.5652 161.417 14.6636 161.121 14.6636ZM167.924 24.9136C167.106 24.9136 166.392 24.7261 165.782 24.3511C165.172 23.9761 164.698 23.4515 164.361 22.7773C164.024 22.103 163.856 21.3152 163.856 20.4136C163.856 19.5083 164.024 18.7167 164.361 18.0386C164.698 17.3606 165.172 16.8341 165.782 16.4591C166.392 16.0841 167.106 15.8966 167.924 15.8966C168.742 15.8966 169.456 16.0841 170.066 16.4591C170.676 16.8341 171.149 17.3606 171.486 18.0386C171.823 18.7167 171.992 19.5083 171.992 20.4136C171.992 21.3152 171.823 22.103 171.486 22.7773C171.149 23.4515 170.676 23.9761 170.066 24.3511C169.456 24.7261 168.742 24.9136 167.924 24.9136ZM167.93 23.4875C168.46 23.4875 168.899 23.3474 169.248 23.0671C169.596 22.7868 169.854 22.4136 170.02 21.9477C170.191 21.4818 170.276 20.9686 170.276 20.408C170.276 19.8511 170.191 19.3398 170.02 18.8739C169.854 18.4042 169.596 18.0273 169.248 17.7432C168.899 17.4591 168.46 17.3171 167.93 17.3171C167.395 17.3171 166.952 17.4591 166.6 17.7432C166.252 18.0273 165.992 18.4042 165.822 18.8739C165.655 19.3398 165.572 19.8511 165.572 20.408C165.572 20.9686 165.655 21.4818 165.822 21.9477C165.992 22.4136 166.252 22.7868 166.6 23.0671C166.952 23.3474 167.395 23.4875 167.93 23.4875ZM175.587 19.5557V24.7375H173.888V16.0102H175.519V17.4307H175.627C175.828 16.9686 176.142 16.5974 176.57 16.3171C177.002 16.0368 177.546 15.8966 178.201 15.8966C178.796 15.8966 179.316 16.0216 179.763 16.2716C180.21 16.5178 180.557 16.8852 180.803 17.3739C181.049 17.8625 181.172 18.4667 181.172 19.1864V24.7375H179.474V19.3909C179.474 18.7583 179.309 18.264 178.979 17.908C178.65 17.5481 178.197 17.3682 177.621 17.3682C177.227 17.3682 176.877 17.4534 176.57 17.6239C176.267 17.7943 176.027 18.0443 175.849 18.3739C175.674 18.6996 175.587 19.0936 175.587 19.5557ZM185.309 21.3909V21.283C185.316 20.5784 185.386 20.0178 185.519 19.6011C185.655 19.1845 185.849 18.8474 186.099 18.5898C186.349 18.3322 186.65 18.0974 187.002 17.8852C187.229 17.7413 187.434 17.5803 187.616 17.4023C187.797 17.2243 187.941 17.0197 188.047 16.7886C188.153 16.5576 188.207 16.3019 188.207 16.0216C188.207 15.6845 188.127 15.3928 187.968 15.1466C187.809 14.9004 187.597 14.711 187.332 14.5784C187.07 14.4421 186.778 14.3739 186.457 14.3739C186.165 14.3739 185.886 14.4345 185.621 14.5557C185.356 14.6769 185.136 14.8663 184.962 15.1239C184.788 15.3777 184.688 15.7053 184.661 16.1068H182.934C182.96 15.425 183.133 14.8493 183.451 14.3796C183.769 13.9061 184.189 13.5481 184.712 13.3057C185.239 13.0633 185.82 12.9421 186.457 12.9421C187.153 12.9421 187.763 13.0727 188.286 13.3341C188.809 13.5917 189.214 13.9534 189.502 14.4193C189.794 14.8815 189.939 15.4212 189.939 16.0386C189.939 16.4629 189.873 16.8455 189.741 17.1864C189.608 17.5235 189.419 17.8246 189.172 18.0898C188.93 18.3549 188.638 18.5898 188.297 18.7943C187.975 18.9951 187.714 19.2034 187.513 19.4193C187.316 19.6352 187.172 19.8909 187.082 20.1864C186.991 20.4818 186.941 20.8474 186.934 21.283V21.3909H185.309ZM186.167 24.8455C185.856 24.8455 185.589 24.7356 185.366 24.5159C185.142 24.2924 185.03 24.0235 185.03 23.7091C185.03 23.3985 185.142 23.1333 185.366 22.9136C185.589 22.6902 185.856 22.5784 186.167 22.5784C186.474 22.5784 186.739 22.6902 186.962 22.9136C187.189 23.1333 187.303 23.3985 187.303 23.7091C187.303 23.9174 187.25 24.1087 187.144 24.283C187.042 24.4534 186.905 24.5898 186.735 24.6921C186.564 24.7943 186.375 24.8455 186.167 24.8455Z" fill="#E8E8E8"/>
<path d="M62.4633 43.7375V31.3739H67.5706C68.4962 31.3739 69.2951 31.5409 69.9672 31.8749C70.6434 32.205 71.1645 32.6799 71.5308 33.2997C71.897 33.9154 72.0801 34.6459 72.0801 35.4911C72.0801 36.3483 71.893 37.0768 71.5187 37.6764C71.1444 38.2721 70.6132 38.7269 69.925 39.0408C69.2367 39.3507 68.4218 39.5056 67.48 39.5056H64.2502V37.1512H66.9246C67.3754 37.1512 67.7517 37.0929 68.0535 36.9761C68.3594 36.8554 68.5908 36.6743 68.7478 36.4328C68.9047 36.1873 68.9832 35.8734 68.9832 35.4911C68.9832 35.1087 68.9047 34.7928 68.7478 34.5433C68.5908 34.2897 68.3594 34.1006 68.0535 33.9758C67.7476 33.847 67.3713 33.7826 66.9246 33.7826H65.4516V43.7375H62.4633ZM69.4239 38.0869L72.5027 43.7375H69.2428L66.2243 38.0869H69.4239ZM77.8711 43.9126C76.9011 43.9126 76.064 43.7214 75.3597 43.3391C74.6594 42.9527 74.1201 42.4033 73.7418 41.691C73.3675 40.9746 73.1804 40.1234 73.1804 39.1374C73.1804 38.1795 73.3695 37.3424 73.7478 36.626C74.1262 35.9056 74.6594 35.3462 75.3476 34.9477C76.0358 34.5453 76.8468 34.344 77.7805 34.344C78.4406 34.344 79.0442 34.4467 79.5916 34.6519C80.1389 34.8572 80.6118 35.161 81.0103 35.5635C81.4087 35.966 81.7186 36.463 81.94 37.0546C82.1613 37.6422 82.272 38.3163 82.272 39.077V39.8135H74.2127V38.099H79.5252C79.5212 37.7851 79.4467 37.5054 79.3018 37.2599C79.1569 37.0144 78.9577 36.8232 78.7042 36.6864C78.4546 36.5455 78.1669 36.4751 77.8409 36.4751C77.5109 36.4751 77.2151 36.5495 76.9535 36.6984C76.6919 36.8433 76.4846 37.0426 76.3316 37.2961C76.1787 37.5456 76.0982 37.8294 76.0902 38.1473V39.892C76.0902 40.2703 76.1646 40.6023 76.3135 40.8881C76.4624 41.1698 76.6737 41.3891 76.9474 41.5461C77.2211 41.7031 77.5471 41.7815 77.9254 41.7815C78.187 41.7815 78.4245 41.7453 78.6378 41.6729C78.8511 41.6004 79.0342 41.4938 79.1871 41.3529C79.3401 41.2121 79.4548 41.039 79.5312 40.8337L82.2418 40.9122C82.1291 41.5199 81.8816 42.0492 81.4993 42.4999C81.1209 42.9467 80.6239 43.2948 80.0081 43.5443C79.3924 43.7898 78.68 43.9126 77.8711 43.9126ZM89.8348 47.2148V42.2343H89.7744C89.6496 42.5201 89.4725 42.7877 89.2431 43.0372C89.0137 43.2867 88.726 43.488 88.3799 43.6409C88.0378 43.7939 87.6333 43.8703 87.1664 43.8703C86.4822 43.8703 85.8604 43.6932 85.301 43.3391C84.7416 42.9849 84.2949 42.4537 83.9608 41.7453C83.6268 41.037 83.4598 40.1576 83.4598 39.1072C83.4598 38.0165 83.6328 37.119 83.9789 36.4147C84.325 35.7104 84.7778 35.1892 85.3372 34.8511C85.9007 34.5131 86.5064 34.344 87.1544 34.344C87.6413 34.344 88.0579 34.4286 88.404 34.5976C88.7501 34.7626 89.0359 34.9759 89.2612 35.2375C89.4866 35.4991 89.6577 35.7708 89.7744 36.0525H89.8649V34.4648H92.7868V47.2148H89.8348ZM88.1927 41.5702C88.5509 41.5702 88.8568 41.4696 89.1103 41.2684C89.3639 41.0631 89.5591 40.7754 89.6959 40.4051C89.8327 40.0349 89.9012 39.6002 89.9012 39.1011C89.9012 38.594 89.8327 38.1574 89.6959 37.7911C89.5631 37.4249 89.3679 37.1432 89.1103 36.946C88.8568 36.7488 88.5509 36.6501 88.1927 36.6501C87.8265 36.6501 87.5166 36.7508 87.263 36.952C87.0095 37.1532 86.8163 37.437 86.6835 37.8032C86.5547 38.1694 86.4903 38.6021 86.4903 39.1011C86.4903 39.6002 86.5567 40.0349 86.6895 40.4051C86.8223 40.7754 87.0135 41.0631 87.263 41.2684C87.5166 41.4696 87.8265 41.5702 88.1927 41.5702ZM100.636 39.735V34.4648H103.582V43.7375H100.769V42.0109H100.673C100.467 42.5784 100.117 43.0292 99.6221 43.3632C99.1311 43.6932 98.5375 43.8582 97.8412 43.8582C97.2094 43.8582 96.654 43.7134 96.175 43.4236C95.6961 43.1338 95.3238 42.7293 95.0582 42.2102C94.7926 41.687 94.6578 41.0752 94.6537 40.3749V34.4648H97.6058V39.7954C97.6098 40.2985 97.7426 40.6949 98.0042 40.9847C98.2658 41.2744 98.622 41.4193 99.0728 41.4193C99.3666 41.4193 99.6302 41.3549 99.8636 41.2261C100.101 41.0933 100.288 40.9022 100.425 40.6526C100.566 40.3991 100.636 40.0932 100.636 39.735ZM109.796 43.9126C108.826 43.9126 107.989 43.7214 107.284 43.3391C106.584 42.9527 106.045 42.4033 105.667 41.691C105.292 40.9746 105.105 40.1234 105.105 39.1374C105.105 38.1795 105.294 37.3424 105.673 36.626C106.051 35.9056 106.584 35.3462 107.272 34.9477C107.961 34.5453 108.772 34.344 109.705 34.344C110.365 34.344 110.969 34.4467 111.516 34.6519C112.064 34.8572 112.537 35.161 112.935 35.5635C113.334 35.966 113.643 36.463 113.865 37.0546C114.086 37.6422 114.197 38.3163 114.197 39.077V39.8135H106.137V38.099H111.45C111.446 37.7851 111.372 37.5054 111.227 37.2599C111.082 37.0144 110.883 36.8232 110.629 36.6864C110.379 36.5455 110.092 36.4751 109.766 36.4751C109.436 36.4751 109.14 36.5495 108.878 36.6984C108.617 36.8433 108.409 37.0426 108.256 37.2961C108.104 37.5456 108.023 37.8294 108.015 38.1473V39.892C108.015 40.2703 108.089 40.6023 108.238 40.8881C108.387 41.1698 108.599 41.3891 108.872 41.5461C109.146 41.7031 109.472 41.7815 109.85 41.7815C110.112 41.7815 110.349 41.7453 110.563 41.6729C110.776 41.6004 110.959 41.4938 111.112 41.3529C111.265 41.2121 111.38 41.039 111.456 40.8337L114.167 40.9122C114.054 41.5199 113.806 42.0492 113.424 42.4999C113.046 42.9467 112.549 43.2948 111.933 43.5443C111.317 43.7898 110.605 43.9126 109.796 43.9126ZM123.8 37.2961L121.089 37.3685C121.061 37.1754 120.985 37.0043 120.86 36.8554C120.735 36.7025 120.572 36.5837 120.371 36.4992C120.174 36.4107 119.944 36.3664 119.683 36.3664C119.341 36.3664 119.049 36.4348 118.807 36.5717C118.57 36.7085 118.453 36.8936 118.457 37.1271C118.453 37.3082 118.526 37.4651 118.675 37.5979C118.828 37.7308 119.099 37.8374 119.49 37.9179L121.277 38.256C122.202 38.4331 122.89 38.7269 123.341 39.1374C123.796 39.5479 124.025 40.0912 124.029 40.7673C124.025 41.4032 123.836 41.9566 123.462 42.4275C123.092 42.8984 122.585 43.2646 121.941 43.5262C121.297 43.7838 120.56 43.9126 119.731 43.9126C118.407 43.9126 117.363 43.6409 116.598 43.0976C115.837 42.5502 115.403 41.8178 115.294 40.9001L118.21 40.8277C118.274 41.1658 118.441 41.4233 118.711 41.6004C118.981 41.7775 119.325 41.8661 119.743 41.8661C120.122 41.8661 120.429 41.7956 120.667 41.6548C120.904 41.5139 121.025 41.3268 121.029 41.0933C121.025 40.8841 120.932 40.717 120.751 40.5923C120.57 40.4635 120.287 40.3629 119.9 40.2904L118.282 39.9825C117.353 39.8135 116.66 39.5016 116.206 39.0468C115.751 38.588 115.525 38.0044 115.529 37.2961C115.525 36.6763 115.69 36.1471 116.024 35.7084C116.359 35.2657 116.833 34.9276 117.449 34.6942C118.065 34.4608 118.791 34.344 119.629 34.344C120.884 34.344 121.874 34.6077 122.599 35.1349C123.323 35.6581 123.724 36.3785 123.8 37.2961ZM130.717 34.4648V36.6381H124.867V34.4648H130.717ZM126.093 32.2432H129.045V40.8217C129.045 41.0028 129.073 41.1497 129.129 41.2624C129.189 41.371 129.276 41.4495 129.389 41.4978C129.501 41.5421 129.636 41.5642 129.793 41.5642C129.906 41.5642 130.025 41.5541 130.149 41.534C130.278 41.5099 130.375 41.4898 130.439 41.4737L130.886 43.6047C130.745 43.6449 130.546 43.6952 130.288 43.7556C130.035 43.816 129.731 43.8542 129.377 43.8703C128.684 43.9025 128.091 43.822 127.596 43.6288C127.105 43.4316 126.728 43.1258 126.467 42.7112C126.209 42.2967 126.085 41.7755 126.093 41.1477V32.2432ZM138.489 43.8945C137.898 43.8945 137.373 43.7959 136.914 43.5987C136.459 43.3974 136.099 43.0956 135.833 42.6931C135.572 42.2866 135.441 41.7775 135.441 41.1658C135.441 40.6506 135.531 40.216 135.712 39.8618C135.894 39.5076 136.143 39.2199 136.461 38.9985C136.779 38.7772 137.145 38.6101 137.56 38.4975C137.974 38.3807 138.417 38.3023 138.888 38.262C139.415 38.2137 139.84 38.1634 140.162 38.1111C140.484 38.0547 140.717 37.9763 140.862 37.8756C141.011 37.771 141.085 37.6241 141.085 37.435V37.4048C141.085 37.0949 140.979 36.8554 140.765 36.6864C140.552 36.5173 140.264 36.4328 139.902 36.4328C139.512 36.4328 139.198 36.5173 138.96 36.6864C138.723 36.8554 138.572 37.0888 138.508 37.3867L135.785 37.2901C135.865 36.7266 136.073 36.2235 136.407 35.7808C136.745 35.3341 137.208 34.984 137.795 34.7304C138.387 34.4728 139.097 34.344 139.926 34.344C140.518 34.344 141.063 34.4145 141.562 34.5553C142.061 34.6922 142.496 34.8934 142.866 35.159C143.236 35.4206 143.522 35.7426 143.723 36.1249C143.929 36.5073 144.031 36.9439 144.031 37.435V43.7375H141.254V42.4456H141.182C141.017 42.7595 140.806 43.0251 140.548 43.2425C140.294 43.4598 139.995 43.6228 139.648 43.7315C139.306 43.8401 138.92 43.8945 138.489 43.8945ZM139.401 41.9626C139.719 41.9626 140.005 41.8983 140.258 41.7695C140.516 41.6407 140.721 41.4636 140.874 41.2382C141.027 41.0088 141.103 40.7432 141.103 40.4413V39.56C141.019 39.6042 140.916 39.6445 140.795 39.6807C140.679 39.7169 140.55 39.7511 140.409 39.7833C140.268 39.8155 140.123 39.8437 139.974 39.8678C139.826 39.892 139.683 39.9141 139.546 39.9342C139.268 39.9785 139.031 40.0469 138.833 40.1395C138.64 40.2321 138.491 40.3528 138.387 40.5017C138.286 40.6466 138.236 40.8197 138.236 41.0209C138.236 41.3268 138.345 41.5602 138.562 41.7212C138.783 41.8822 139.063 41.9626 139.401 41.9626ZM149.489 43.7375V31.3739H154.596C155.522 31.3739 156.32 31.555 156.993 31.9172C157.669 32.2754 158.19 32.7765 158.556 33.4204C158.922 34.0603 159.106 34.8049 159.106 35.6541C159.106 36.5073 158.918 37.2538 158.544 37.8938C158.174 38.5296 157.645 39.0227 156.956 39.3728C156.268 39.7229 155.451 39.898 154.505 39.898H151.354V37.5436H153.95C154.401 37.5436 154.777 37.4651 155.079 37.3082C155.385 37.1512 155.616 36.9319 155.773 36.6501C155.93 36.3644 156.009 36.0324 156.009 35.6541C156.009 35.2717 155.93 34.9417 155.773 34.664C155.616 34.3823 155.385 34.1649 155.079 34.012C154.773 33.8591 154.397 33.7826 153.95 33.7826H152.477V43.7375H149.489ZM164.724 43.9126C163.75 43.9126 162.913 43.7134 162.213 43.3149C161.517 42.9125 160.979 42.353 160.601 41.6367C160.227 40.9162 160.04 40.0811 160.04 39.1313C160.04 38.1775 160.227 37.3424 160.601 36.626C160.979 35.9056 161.517 35.3462 162.213 34.9477C162.913 34.5453 163.75 34.344 164.724 34.344C165.698 34.344 166.533 34.5453 167.23 34.9477C167.93 35.3462 168.467 35.9056 168.842 36.626C169.22 37.3424 169.409 38.1775 169.409 39.1313C169.409 40.0811 169.22 40.9162 168.842 41.6367C168.467 42.353 167.93 42.9125 167.23 43.3149C166.533 43.7134 165.698 43.9126 164.724 43.9126ZM164.742 41.6849C165.097 41.6849 165.396 41.5763 165.642 41.359C165.887 41.1416 166.075 40.8398 166.203 40.4534C166.336 40.0671 166.403 39.6203 166.403 39.1132C166.403 38.5981 166.336 38.1473 166.203 37.7609C166.075 37.3746 165.887 37.0727 165.642 36.8554C165.396 36.6381 165.097 36.5294 164.742 36.5294C164.376 36.5294 164.066 36.6381 163.813 36.8554C163.563 37.0727 163.372 37.3746 163.239 37.7609C163.111 38.1473 163.046 38.5981 163.046 39.1132C163.046 39.6203 163.111 40.0671 163.239 40.4534C163.372 40.8398 163.563 41.1416 163.813 41.359C164.066 41.5763 164.376 41.6849 164.742 41.6849ZM170.921 43.7375V34.4648H173.789V36.1551H173.885C174.054 35.5434 174.33 35.0886 174.712 34.7908C175.095 34.4889 175.54 34.338 176.047 34.338C176.183 34.338 176.324 34.3481 176.469 34.3682C176.614 34.3843 176.749 34.4104 176.874 34.4467V37.0124C176.733 36.9641 176.548 36.9258 176.318 36.8977C176.093 36.8695 175.892 36.8554 175.715 36.8554C175.364 36.8554 175.049 36.9339 174.767 37.0908C174.489 37.2438 174.27 37.4591 174.109 37.7368C173.952 38.0105 173.873 38.3324 173.873 38.7027V43.7375H170.921ZM183.742 34.4648V36.6381H177.892V34.4648H183.742ZM179.118 32.2432H182.07V40.8217C182.07 41.0028 182.098 41.1497 182.155 41.2624C182.215 41.371 182.301 41.4495 182.414 41.4978C182.527 41.5421 182.662 41.5642 182.819 41.5642C182.931 41.5642 183.05 41.5541 183.175 41.534C183.304 41.5099 183.4 41.4898 183.465 41.4737L183.911 43.6047C183.77 43.6449 183.571 43.6952 183.314 43.7556C183.06 43.816 182.756 43.8542 182.402 43.8703C181.71 43.9025 181.116 43.822 180.621 43.6288C180.13 43.4316 179.754 43.1258 179.492 42.7112C179.235 42.2967 179.11 41.7755 179.118 41.1477V32.2432ZM188.72 31.3739L188.442 39.9524H185.961L185.683 31.3739H188.72ZM187.198 43.9126C186.768 43.9126 186.397 43.7596 186.088 43.4538C185.782 43.1479 185.629 42.7776 185.629 42.343C185.629 41.9164 185.782 41.5521 186.088 41.2503C186.397 40.9444 186.768 40.7915 187.198 40.7915C187.613 40.7915 187.977 40.9444 188.291 41.2503C188.609 41.5521 188.768 41.9164 188.768 42.343C188.768 42.6327 188.694 42.8964 188.545 43.1338C188.4 43.3713 188.209 43.5604 187.971 43.7013C187.738 43.8421 187.48 43.9126 187.198 43.9126Z" fill="url(#paint1_linear_1_50)"/>
</g>
<defs>
<filter id="filter0_d_1_50" x="6.28571" y="1.02481" width="52.9562" height="54.4254" filterUnits="userSpaceOnUse" color-interpolation-filters="sRGB">
<feFlood flood-opacity="0" result="BackgroundImageFix"/>
<feColorMatrix in="SourceAlpha" type="matrix" values="0 0 0 0 0 0 0 0 0 0 0 0 0 0 0 0 0 0 127 0" result="hardAlpha"/>
<feOffset/>
<feGaussianBlur stdDeviation="2.85714"/>
<feComposite in2="hardAlpha" operator="out"/>
<feColorMatrix type="matrix" values="0 0 0 0 0 0 0 0 0 0 0 0 0 0 0 0 0 0 0.25 0"/>
<feBlend mode="normal" in2="BackgroundImageFix" result="effect1_dropShadow_1_50"/>
<feBlend mode="normal" in="SourceGraphic" in2="effect1_dropShadow_1_50" result="shape"/>
</filter>
<filter id="filter1_d_1_50" x="55.9276" y="4.13752" width="141.2" height="48.6773" filterUnits="userSpaceOnUse" color-interpolation-filters="sRGB">
<feFlood flood-opacity="0" result="BackgroundImageFix"/>
<feColorMatrix in="SourceAlpha" type="matrix" values="0 0 0 0 0 0 0 0 0 0 0 0 0 0 0 0 0 0 127 0" result="hardAlpha"/>
<feOffset/>
<feGaussianBlur stdDeviation="2.8"/>
<feComposite in2="hardAlpha" operator="out"/>
<feColorMatrix type="matrix" values="0 0 0 0 0 0 0 0 0 0 0 0 0 0 0 0 0 0 0.25 0"/>
<feBlend mode="normal" in2="BackgroundImageFix" result="effect1_dropShadow_1_50"/>
<feBlend mode="normal" in="SourceGraphic" in2="effect1_dropShadow_1_50" result="shape"/>
</filter>
<linearGradient id="paint0_linear_1_50" x1="34.643" y1="-163.459" x2="199.044" y2="31.9689" gradientUnits="userSpaceOnUse">
<stop stop-color="#610023"/>
<stop offset="1" stop-color="#1A0328"/>
</linearGradient>
<linearGradient id="paint1_linear_1_50" x1="190.528" y1="33.0709" x2="70.8379" y2="0.573215" gradientUnits="userSpaceOnUse">
<stop offset="0.155" stop-color="#CF82FF"/>
<stop offset="0.825" stop-color="#FC71A3"/>
</linearGradient>
</defs>
</svg>
