<svg width="329" height="48" viewBox="0 0 329 48" fill="none" xmlns="http://www.w3.org/2000/svg">
<g clip-path="url(#clip0_1_56)">
<rect width="329" height="47.3334" rx="8" fill="url(#paint0_linear_1_56)"/>
<g filter="url(#filter0_d_1_56)">
<path d="M40.309 15.1077L26 23.6667M26 23.6667L11.4689 15.4911M26 23.6667L26.2234 40.4995M41.3637 30.6549L41.1728 16.2724C41.1648 15.6653 41.1607 15.3618 41.0715 15.0922C40.9926 14.8536 40.8657 14.6354 40.6997 14.4521C40.5118 14.2449 40.2559 14.1008 39.7437 13.8128L27.0932 6.69528C26.6084 6.42249 26.3659 6.2861 26.1106 6.23476C25.8843 6.18933 25.6519 6.19242 25.4271 6.24384C25.173 6.30196 24.9343 6.44475 24.4569 6.73032L11.9996 14.1816C11.4954 14.4832 11.2433 14.634 11.061 14.8461C10.8998 15.0338 10.7789 15.2553 10.7063 15.4958C10.6242 15.7677 10.6283 16.0713 10.6363 16.6784L10.8272 31.0608C10.8352 31.6681 10.8393 31.9716 10.9285 32.2412C11.0075 32.4797 11.1342 32.698 11.3004 32.8811C11.4882 33.0885 11.7442 33.2325 12.2562 33.5206L24.9068 40.6381C25.3917 40.9109 25.6341 41.0472 25.8896 41.0985C26.1157 41.1441 26.3481 41.141 26.5731 41.0894C26.827 41.0313 27.0657 40.8887 27.5432 40.603L40.0004 33.1518C40.5047 32.8502 40.7567 32.6994 40.939 32.4871C41.1001 32.2996 41.2212 32.0781 41.2937 31.8375C41.3758 31.5656 41.3717 31.2621 41.3637 30.6549Z" stroke="#D9D9D9" stroke-width="3" stroke-linecap="round" stroke-linejoin="round"/>
</g>
<g filter="url(#filter1_d_1_56)">
<path d="M51.3583 17.803H53.6222L57.5583 27.4138H57.7031L61.6392 17.803H63.9031V30.1667H62.1282V21.22H62.0135L58.3672 30.1486H56.8942L53.2479 21.2139H53.1332V30.1667H51.3583V17.803ZM66.4703 30.1667V20.894H68.2753V30.1667H66.4703ZM67.3818 19.4632C67.0679 19.4632 66.7983 19.3586 66.5729 19.1493C66.3515 18.936 66.2409 18.6824 66.2409 18.3886C66.2409 18.0908 66.3515 17.8373 66.5729 17.628C66.7983 17.4147 67.0679 17.308 67.3818 17.308C67.6958 17.308 67.9634 17.4147 68.1848 17.628C68.4101 17.8373 68.5228 18.0908 68.5228 18.3886C68.5228 18.6824 68.4101 18.936 68.1848 19.1493C67.9634 19.3586 67.6958 19.4632 67.3818 19.4632ZM77.6522 23.1578L76.0162 23.4476C75.9477 23.2383 75.8391 23.0391 75.6902 22.8499C75.5453 22.6608 75.3481 22.5058 75.0986 22.3851C74.849 22.2643 74.5371 22.204 74.1628 22.204C73.6517 22.204 73.2251 22.3187 72.883 22.5481C72.5409 22.7735 72.3699 23.0652 72.3699 23.4234C72.3699 23.7333 72.4846 23.9829 72.714 24.172C72.9434 24.3612 73.3136 24.5161 73.8248 24.6369L75.2978 24.9749C76.151 25.1721 76.7869 25.476 77.2054 25.8865C77.624 26.297 77.8333 26.8303 77.8333 27.4863C77.8333 28.0417 77.6723 28.5367 77.3503 28.9714C77.0324 29.402 76.5877 29.7401 76.0162 29.9856C75.4487 30.2311 74.7907 30.3538 74.0421 30.3538C73.0037 30.3538 72.1566 30.1325 71.5005 29.6898C70.8445 29.243 70.4421 28.6092 70.2932 27.7881L72.0378 27.5225C72.1465 27.9773 72.3699 28.3214 72.7079 28.5548C73.046 28.7842 73.4867 28.8989 74.03 28.8989C74.6216 28.8989 75.0945 28.7762 75.4487 28.5307C75.8029 28.2811 75.9799 27.9773 75.9799 27.6191C75.9799 27.3293 75.8713 27.0858 75.6539 26.8886C75.4406 26.6914 75.1126 26.5425 74.6699 26.4419L73.1003 26.0978C72.235 25.9006 71.5951 25.5867 71.1806 25.156C70.7701 24.7254 70.5648 24.1801 70.5648 23.52C70.5648 22.9727 70.7178 22.4937 71.0236 22.0832C71.3295 21.6727 71.7521 21.3528 72.2914 21.1234C72.8307 20.8899 73.4485 20.7732 74.1447 20.7732C75.1468 20.7732 75.9357 20.9905 76.5112 21.4252C77.0867 21.8558 77.467 22.4334 77.6522 23.1578ZM86.7664 23.1578L85.1304 23.4476C85.062 23.2383 84.9533 23.0391 84.8044 22.8499C84.6595 22.6608 84.4623 22.5058 84.2128 22.3851C83.9633 22.2643 83.6514 22.204 83.2771 22.204C82.766 22.204 82.3393 22.3187 81.9973 22.5481C81.6552 22.7735 81.4841 23.0652 81.4841 23.4234C81.4841 23.7333 81.5988 23.9829 81.8282 24.172C82.0576 24.3612 82.4279 24.5161 82.939 24.6369L84.412 24.9749C85.2652 25.1721 85.9011 25.476 86.3197 25.8865C86.7383 26.297 86.9475 26.8303 86.9475 27.4863C86.9475 28.0417 86.7866 28.5367 86.4646 28.9714C86.1466 29.402 85.7019 29.7401 85.1304 29.9856C84.5629 30.2311 83.9049 30.3538 83.1563 30.3538C82.118 30.3538 81.2708 30.1325 80.6148 29.6898C79.9588 29.243 79.5563 28.6092 79.4074 27.7881L81.1521 27.5225C81.2607 27.9773 81.4841 28.3214 81.8222 28.5548C82.1603 28.7842 82.6009 28.8989 83.1443 28.8989C83.7359 28.8989 84.2088 28.7762 84.5629 28.5307C84.9171 28.2811 85.0942 27.9773 85.0942 27.6191C85.0942 27.3293 84.9855 27.0858 84.7682 26.8886C84.5549 26.6914 84.2269 26.5425 83.7842 26.4419L82.2146 26.0978C81.3493 25.9006 80.7094 25.5867 80.2948 25.156C79.8843 24.7254 79.6791 24.1801 79.6791 23.52C79.6791 22.9727 79.832 22.4937 80.1379 22.0832C80.4438 21.6727 80.8663 21.3528 81.4056 21.1234C81.9449 20.8899 82.5627 20.7732 83.259 20.7732C84.2611 20.7732 85.0499 20.9905 85.6254 21.4252C86.201 21.8558 86.5813 22.4334 86.7664 23.1578ZM88.9322 30.1667V20.894H90.7372V30.1667H88.9322ZM89.8438 19.4632C89.5298 19.4632 89.2602 19.3586 89.0348 19.1493C88.8135 18.936 88.7028 18.6824 88.7028 18.3886C88.7028 18.0908 88.8135 17.8373 89.0348 17.628C89.2602 17.4147 89.5298 17.308 89.8438 17.308C90.1577 17.308 90.4253 17.4147 90.6467 17.628C90.872 17.8373 90.9847 18.0908 90.9847 18.3886C90.9847 18.6824 90.872 18.936 90.6467 19.1493C90.4253 19.3586 90.1577 19.4632 89.8438 19.4632ZM94.9706 24.661V30.1667H93.1656V20.894H94.8982V22.4032H95.0129C95.2262 21.9122 95.5602 21.5178 96.015 21.22C96.4738 20.9221 97.0513 20.7732 97.7476 20.7732C98.3795 20.7732 98.9329 20.906 99.4078 21.1717C99.8827 21.4333 100.251 21.8236 100.513 22.3428C100.774 22.862 100.905 23.5039 100.905 24.2686V30.1667H99.0999V24.4859C99.0999 23.8138 98.9248 23.2886 98.5747 22.9103C98.2245 22.528 97.7436 22.3368 97.1318 22.3368C96.7133 22.3368 96.341 22.4273 96.015 22.6084C95.693 22.7896 95.4375 23.0552 95.2483 23.4053C95.0632 23.7514 94.9706 24.17 94.9706 24.661ZM107.214 33.8371C106.477 33.8371 105.843 33.7405 105.312 33.5474C104.785 33.3542 104.354 33.0986 104.02 32.7807C103.686 32.4627 103.436 32.1146 103.271 31.7363L104.823 31.0964C104.932 31.2735 105.076 31.4606 105.258 31.6578C105.443 31.859 105.692 32.0301 106.006 32.1709C106.324 32.3118 106.733 32.3822 107.232 32.3822C107.916 32.3822 108.481 32.2152 108.928 31.8812C109.375 31.5512 109.598 31.0239 109.598 30.2995V28.4763H109.483C109.375 28.6735 109.218 28.8929 109.013 29.1344C108.811 29.3758 108.534 29.5851 108.179 29.7622C107.825 29.9393 107.364 30.0278 106.797 30.0278C106.064 30.0278 105.404 29.8568 104.817 29.5147C104.233 29.1686 103.77 28.6595 103.428 27.9874C103.09 27.3112 102.921 26.4801 102.921 25.4941C102.921 24.5081 103.088 23.6629 103.422 22.9586C103.76 22.2543 104.223 21.715 104.811 21.3407C105.398 20.9624 106.064 20.7732 106.809 20.7732C107.385 20.7732 107.849 20.8698 108.204 21.063C108.558 21.2521 108.833 21.4735 109.031 21.7271C109.232 21.9806 109.387 22.204 109.495 22.3972H109.628V20.894H111.397V30.3719C111.397 31.1688 111.212 31.8228 110.842 32.3339C110.471 32.8451 109.97 33.2234 109.339 33.4689C108.711 33.7144 108.002 33.8371 107.214 33.8371ZM107.195 28.5307C107.715 28.5307 108.153 28.4099 108.511 28.1685C108.874 27.923 109.147 27.5728 109.332 27.118C109.522 26.6592 109.616 26.1099 109.616 25.47C109.616 24.8461 109.524 24.2968 109.339 23.8219C109.153 23.347 108.882 22.9767 108.524 22.7111C108.165 22.4414 107.723 22.3066 107.195 22.3066C106.652 22.3066 106.199 22.4475 105.837 22.7292C105.475 23.0069 105.201 23.3852 105.016 23.8641C104.835 24.3431 104.744 24.8783 104.744 25.47C104.744 26.0777 104.837 26.6109 105.022 27.0697C105.207 27.5285 105.481 27.8867 105.843 28.1443C106.209 28.4019 106.66 28.5307 107.195 28.5307ZM119.542 17.803L122.983 27.8726H123.122L126.563 17.803H128.58L124.13 30.1667H121.975L117.526 17.803H119.542ZM133.287 30.3538C132.373 30.3538 131.587 30.1586 130.927 29.7682C130.271 29.3738 129.763 28.8204 129.405 28.1081C129.051 27.3917 128.874 26.5526 128.874 25.5907C128.874 24.6409 129.051 23.8038 129.405 23.0793C129.763 22.3549 130.263 21.7894 130.902 21.3829C131.546 20.9765 132.299 20.7732 133.16 20.7732C133.683 20.7732 134.191 20.8597 134.682 21.0328C135.173 21.2059 135.613 21.4775 136.004 21.8478C136.394 22.2181 136.702 22.699 136.927 23.2906C137.153 23.8782 137.265 24.5926 137.265 25.4337V26.0736H129.894V24.7214H135.497C135.497 24.2465 135.4 23.8259 135.207 23.4597C135.014 23.0894 134.742 22.7976 134.392 22.5843C134.046 22.371 133.639 22.2643 133.172 22.2643C132.665 22.2643 132.222 22.3891 131.844 22.6386C131.47 22.8841 131.18 23.2061 130.975 23.6045C130.774 23.999 130.673 24.4276 130.673 24.8904V25.9469C130.673 26.5667 130.782 27.0939 130.999 27.5285C131.22 27.9632 131.528 28.2952 131.923 28.5246C132.317 28.75 132.778 28.8627 133.305 28.8627C133.647 28.8627 133.959 28.8144 134.241 28.7178C134.523 28.6172 134.766 28.4683 134.971 28.2711C135.177 28.0739 135.334 27.8304 135.442 27.5406L137.151 27.8485C137.014 28.3516 136.768 28.7923 136.414 29.1706C136.064 29.5449 135.623 29.8367 135.092 30.0459C134.565 30.2512 133.963 30.3538 133.287 30.3538ZM139.268 30.1667V20.894H141.013V22.367H141.109C141.278 21.8679 141.576 21.4755 142.003 21.1898C142.433 20.9 142.92 20.7551 143.464 20.7551C143.576 20.7551 143.709 20.7591 143.862 20.7672C144.019 20.7752 144.142 20.7853 144.23 20.7974V22.5239C144.158 22.5038 144.029 22.4817 143.844 22.4575C143.659 22.4293 143.474 22.4153 143.289 22.4153C142.862 22.4153 142.482 22.5058 142.148 22.6869C141.818 22.864 141.556 23.1115 141.363 23.4295C141.17 23.7434 141.073 24.1016 141.073 24.504V30.1667H139.268ZM152.741 23.1578L151.105 23.4476C151.037 23.2383 150.928 23.0391 150.779 22.8499C150.634 22.6608 150.437 22.5058 150.187 22.3851C149.938 22.2643 149.626 22.204 149.252 22.204C148.741 22.204 148.314 22.3187 147.972 22.5481C147.63 22.7735 147.459 23.0652 147.459 23.4234C147.459 23.7333 147.573 23.9829 147.803 24.172C148.032 24.3612 148.402 24.5161 148.914 24.6369L150.387 24.9749C151.24 25.1721 151.876 25.476 152.294 25.8865C152.713 26.297 152.922 26.8303 152.922 27.4863C152.922 28.0417 152.761 28.5367 152.439 28.9714C152.121 29.402 151.677 29.7401 151.105 29.9856C150.538 30.2311 149.88 30.3538 149.131 30.3538C148.093 30.3538 147.245 30.1325 146.589 29.6898C145.933 29.243 145.531 28.6092 145.382 27.7881L147.127 27.5225C147.235 27.9773 147.459 28.3214 147.797 28.5548C148.135 28.7842 148.576 28.8989 149.119 28.8989C149.71 28.8989 150.183 28.7762 150.538 28.5307C150.892 28.2811 151.069 27.9773 151.069 27.6191C151.069 27.3293 150.96 27.0858 150.743 26.8886C150.529 26.6914 150.201 26.5425 149.759 26.4419L148.189 26.0978C147.324 25.9006 146.684 25.5867 146.269 25.156C145.859 24.7254 145.654 24.1801 145.654 23.52C145.654 22.9727 145.807 22.4937 146.112 22.0832C146.418 21.6727 146.841 21.3528 147.38 21.1234C147.92 20.8899 148.537 20.7732 149.234 20.7732C150.236 20.7732 151.025 20.9905 151.6 21.4252C152.176 21.8558 152.556 22.4334 152.741 23.1578ZM154.907 30.1667V20.894H156.712V30.1667H154.907ZM155.818 19.4632C155.504 19.4632 155.235 19.3586 155.009 19.1493C154.788 18.936 154.677 18.6824 154.677 18.3886C154.677 18.0908 154.788 17.8373 155.009 17.628C155.235 17.4147 155.504 17.308 155.818 17.308C156.132 17.308 156.4 17.4147 156.621 17.628C156.847 17.8373 156.959 18.0908 156.959 18.3886C156.959 18.6824 156.847 18.936 156.621 19.1493C156.4 19.3586 156.132 19.4632 155.818 19.4632ZM163.046 30.3538C162.177 30.3538 161.418 30.1546 160.77 29.7562C160.122 29.3577 159.619 28.8003 159.261 28.0839C158.903 27.3676 158.724 26.5304 158.724 25.5726C158.724 24.6107 158.903 23.7695 159.261 23.0491C159.619 22.3287 160.122 21.7693 160.77 21.3709C161.418 20.9724 162.177 20.7732 163.046 20.7732C163.915 20.7732 164.674 20.9724 165.322 21.3709C165.97 21.7693 166.473 22.3287 166.831 23.0491C167.189 23.7695 167.368 24.6107 167.368 25.5726C167.368 26.5304 167.189 27.3676 166.831 28.0839C166.473 28.8003 165.97 29.3577 165.322 29.7562C164.674 30.1546 163.915 30.3538 163.046 30.3538ZM163.052 28.8386C163.616 28.8386 164.082 28.6896 164.453 28.3918C164.823 28.094 165.097 27.6976 165.274 27.2025C165.455 26.7075 165.545 26.1622 165.545 25.5665C165.545 24.9749 165.455 24.4316 165.274 23.9366C165.097 23.4375 164.823 23.0371 164.453 22.7352C164.082 22.4334 163.616 22.2825 163.052 22.2825C162.485 22.2825 162.014 22.4334 161.639 22.7352C161.269 23.0371 160.994 23.4375 160.812 23.9366C160.635 24.4316 160.547 24.9749 160.547 25.5665C160.547 26.1622 160.635 26.7075 160.812 27.2025C160.994 27.6976 161.269 28.094 161.639 28.3918C162.014 28.6896 162.485 28.8386 163.052 28.8386ZM171.188 24.661V30.1667H169.383V20.894H171.116V22.4032H171.231C171.444 21.9122 171.778 21.5178 172.233 21.22C172.692 20.9221 173.269 20.7732 173.965 20.7732C174.597 20.7732 175.151 20.906 175.626 21.1717C176.1 21.4333 176.469 21.8236 176.73 22.3428C176.992 22.862 177.123 23.5039 177.123 24.2686V30.1667H175.318V24.4859C175.318 23.8138 175.143 23.2886 174.792 22.9103C174.442 22.528 173.961 22.3368 173.35 22.3368C172.931 22.3368 172.559 22.4273 172.233 22.6084C171.911 22.7896 171.655 23.0552 171.466 23.4053C171.281 23.7514 171.188 24.17 171.188 24.661ZM181.518 26.6109V26.4962C181.526 25.7476 181.6 25.152 181.741 24.7093C181.886 24.2666 182.091 23.9084 182.357 23.6347C182.622 23.361 182.942 23.1115 183.317 22.8861C183.558 22.7332 183.775 22.5622 183.969 22.373C184.162 22.1838 184.315 21.9665 184.427 21.721C184.54 21.4755 184.596 21.2039 184.596 20.906C184.596 20.5478 184.512 20.2379 184.343 19.9763C184.174 19.7147 183.948 19.5135 183.667 19.3727C183.389 19.2278 183.079 19.1553 182.737 19.1553C182.427 19.1553 182.131 19.2197 181.85 19.3485C181.568 19.4773 181.334 19.6785 181.149 19.9522C180.964 20.2218 180.858 20.57 180.829 20.9966H178.994C179.022 20.2722 179.205 19.6604 179.543 19.1614C179.882 18.6583 180.328 18.278 180.884 18.0204C181.443 17.7628 182.061 17.634 182.737 17.634C183.478 17.634 184.126 17.7729 184.681 18.0506C185.236 18.3242 185.667 18.7086 185.973 19.2036C186.283 19.6946 186.438 20.2681 186.438 20.9241C186.438 21.3749 186.367 21.7814 186.226 22.1436C186.085 22.5018 185.884 22.8218 185.623 23.1035C185.365 23.3852 185.055 23.6347 184.693 23.8521C184.351 24.0654 184.073 24.2867 183.86 24.5161C183.651 24.7455 183.498 25.0172 183.401 25.3311C183.304 25.645 183.252 26.0334 183.244 26.4962V26.6109H181.518ZM182.429 30.2814C182.099 30.2814 181.815 30.1647 181.578 29.9312C181.34 29.6938 181.222 29.408 181.222 29.074C181.222 28.744 181.34 28.4623 181.578 28.2288C181.815 27.9914 182.099 27.8726 182.429 27.8726C182.755 27.8726 183.037 27.9914 183.274 28.2288C183.516 28.4623 183.637 28.744 183.637 29.074C183.637 29.2954 183.58 29.4986 183.467 29.6837C183.359 29.8648 183.214 30.0097 183.033 30.1184C182.852 30.2271 182.65 30.2814 182.429 30.2814Z" fill="#E8E8E8"/>
<path d="M192.936 29.6667V17.303H198.043C198.969 17.303 199.768 17.4701 200.44 17.8041C201.116 18.1341 201.637 18.609 202.003 19.2288C202.369 19.8446 202.553 20.5751 202.553 21.4202C202.553 22.2775 202.365 23.0059 201.991 23.6056C201.617 24.2012 201.086 24.656 200.397 24.97C199.709 25.2798 198.894 25.4348 197.952 25.4348H194.723V23.0804H197.397C197.848 23.0804 198.224 23.022 198.526 22.9053C198.832 22.7846 199.063 22.6035 199.22 22.362C199.377 22.1165 199.456 21.8026 199.456 21.4202C199.456 21.0379 199.377 20.722 199.22 20.4724C199.063 20.2189 198.832 20.0297 198.526 19.905C198.22 19.7762 197.844 19.7118 197.397 19.7118H195.924V29.6667H192.936ZM199.896 24.0161L202.975 29.6667H199.715L196.697 24.0161H199.896ZM208.344 29.8418C207.374 29.8418 206.536 29.6506 205.832 29.2682C205.132 28.8819 204.593 28.3325 204.214 27.6202C203.84 26.9038 203.653 26.0526 203.653 25.0665C203.653 24.1087 203.842 23.2716 204.22 22.5552C204.599 21.8348 205.132 21.2753 205.82 20.8769C206.508 20.4745 207.319 20.2732 208.253 20.2732C208.913 20.2732 209.517 20.3758 210.064 20.5811C210.611 20.7864 211.084 21.0902 211.483 21.4927C211.881 21.8951 212.191 22.3922 212.412 22.9838C212.634 23.5714 212.744 24.2455 212.744 25.0062V25.7427H204.685V24.0282H209.998C209.994 23.7143 209.919 23.4346 209.774 23.1891C209.629 22.9436 209.43 22.7524 209.177 22.6155C208.927 22.4747 208.639 22.4043 208.313 22.4043C207.983 22.4043 207.687 22.4787 207.426 22.6276C207.164 22.7725 206.957 22.9717 206.804 23.2253C206.651 23.4748 206.571 23.7585 206.563 24.0765V25.8212C206.563 26.1995 206.637 26.5315 206.786 26.8173C206.935 27.099 207.146 27.3183 207.42 27.4753C207.694 27.6322 208.02 27.7107 208.398 27.7107C208.659 27.7107 208.897 27.6745 209.11 27.6021C209.324 27.5296 209.507 27.423 209.66 27.2821C209.812 27.1412 209.927 26.9682 210.004 26.7629L212.714 26.8414C212.602 27.4491 212.354 27.9784 211.972 28.4291C211.593 28.8758 211.096 29.224 210.481 29.4735C209.865 29.719 209.152 29.8418 208.344 29.8418ZM220.307 33.144V28.1635H220.247C220.122 28.4492 219.945 28.7169 219.716 28.9664C219.486 29.2159 219.198 29.4172 218.852 29.5701C218.51 29.723 218.106 29.7995 217.639 29.7995C216.955 29.7995 216.333 29.6224 215.773 29.2682C215.214 28.9141 214.767 28.3828 214.433 27.6745C214.099 26.9662 213.932 26.0868 213.932 25.0364C213.932 23.9457 214.105 23.0482 214.451 22.3439C214.797 21.6396 215.25 21.1184 215.81 20.7803C216.373 20.4423 216.979 20.2732 217.627 20.2732C218.114 20.2732 218.53 20.3577 218.876 20.5268C219.223 20.6918 219.508 20.9051 219.734 21.1667C219.959 21.4283 220.13 21.6999 220.247 21.9817H220.337V20.394H223.259V33.144H220.307ZM218.665 27.4994C219.023 27.4994 219.329 27.3988 219.583 27.1976C219.836 26.9923 220.032 26.7046 220.168 26.3343C220.305 25.964 220.374 25.5294 220.374 25.0303C220.374 24.5232 220.305 24.0865 220.168 23.7203C220.036 23.3541 219.84 23.0723 219.583 22.8751C219.329 22.6779 219.023 22.5793 218.665 22.5793C218.299 22.5793 217.989 22.6799 217.735 22.8812C217.482 23.0824 217.289 23.3661 217.156 23.7324C217.027 24.0986 216.963 24.5313 216.963 25.0303C216.963 25.5294 217.029 25.964 217.162 26.3343C217.295 26.7046 217.486 26.9923 217.735 27.1976C217.989 27.3988 218.299 27.4994 218.665 27.4994ZM231.109 25.6642V20.394H234.055V29.6667H231.242V27.9401H231.145C230.94 28.5076 230.59 28.9583 230.095 29.2924C229.604 29.6224 229.01 29.7874 228.314 29.7874C227.682 29.7874 227.126 29.6425 226.647 29.3528C226.169 29.063 225.796 28.6585 225.531 28.1393C225.265 27.6161 225.13 27.0044 225.126 26.3041V20.394H228.078V25.7246C228.082 26.2276 228.215 26.6241 228.477 26.9138C228.738 27.2036 229.094 27.3485 229.545 27.3485C229.839 27.3485 230.103 27.2841 230.336 27.1553C230.573 27.0225 230.761 26.8313 230.897 26.5818C231.038 26.3283 231.109 26.0224 231.109 25.6642ZM240.268 29.8418C239.298 29.8418 238.461 29.6506 237.757 29.2682C237.057 28.8819 236.517 28.3325 236.139 27.6202C235.765 26.9038 235.578 26.0526 235.578 25.0665C235.578 24.1087 235.767 23.2716 236.145 22.5552C236.523 21.8348 237.057 21.2753 237.745 20.8769C238.433 20.4745 239.244 20.2732 240.178 20.2732C240.838 20.2732 241.441 20.3758 241.989 20.5811C242.536 20.7864 243.009 21.0902 243.408 21.4927C243.806 21.8951 244.116 22.3922 244.337 22.9838C244.559 23.5714 244.669 24.2455 244.669 25.0062V25.7427H236.61V24.0282H241.922C241.918 23.7143 241.844 23.4346 241.699 23.1891C241.554 22.9436 241.355 22.7524 241.101 22.6155C240.852 22.4747 240.564 22.4043 240.238 22.4043C239.908 22.4043 239.612 22.4787 239.351 22.6276C239.089 22.7725 238.882 22.9717 238.729 23.2253C238.576 23.4748 238.495 23.7585 238.487 24.0765V25.8212C238.487 26.1995 238.562 26.5315 238.711 26.8173C238.86 27.099 239.071 27.3183 239.345 27.4753C239.618 27.6322 239.944 27.7107 240.323 27.7107C240.584 27.7107 240.822 27.6745 241.035 27.6021C241.248 27.5296 241.431 27.423 241.584 27.2821C241.737 27.1412 241.852 26.9682 241.928 26.7629L244.639 26.8414C244.526 27.4491 244.279 27.9784 243.896 28.4291C243.518 28.8758 243.021 29.224 242.405 29.4735C241.79 29.719 241.077 29.8418 240.268 29.8418ZM254.272 23.2253L251.562 23.2977C251.534 23.1045 251.457 22.9335 251.332 22.7846C251.208 22.6316 251.045 22.5129 250.843 22.4284C250.646 22.3399 250.417 22.2956 250.155 22.2956C249.813 22.2956 249.521 22.364 249.28 22.5008C249.042 22.6377 248.926 22.8228 248.93 23.0562C248.926 23.2374 248.998 23.3943 249.147 23.5271C249.3 23.6599 249.572 23.7666 249.962 23.8471L251.749 24.1851C252.675 24.3622 253.363 24.656 253.814 25.0665C254.268 25.4771 254.498 26.0204 254.502 26.6965C254.498 27.3324 254.309 27.8858 253.934 28.3567C253.564 28.8275 253.057 29.1938 252.413 29.4554C251.769 29.713 251.033 29.8418 250.204 29.8418C248.879 29.8418 247.835 29.5701 247.07 29.0268C246.31 28.4794 245.875 27.7469 245.766 26.8293L248.682 26.7569C248.747 27.095 248.914 27.3525 249.183 27.5296C249.453 27.7067 249.797 27.7952 250.216 27.7952C250.594 27.7952 250.902 27.7248 251.139 27.5839C251.377 27.4431 251.497 27.2559 251.502 27.0225C251.497 26.8132 251.405 26.6462 251.224 26.5214C251.043 26.3927 250.759 26.292 250.373 26.2196L248.755 25.9117C247.825 25.7427 247.133 25.4308 246.678 24.976C246.223 24.5172 245.998 23.9336 246.002 23.2253C245.998 22.6055 246.163 22.0762 246.497 21.6376C246.831 21.1949 247.306 20.8568 247.922 20.6234C248.537 20.3899 249.264 20.2732 250.101 20.2732C251.357 20.2732 252.347 20.5368 253.071 21.0641C253.796 21.5873 254.196 22.3077 254.272 23.2253ZM261.189 20.394V22.5673H255.34V20.394H261.189ZM256.565 18.1724H259.517V26.7508C259.517 26.932 259.545 27.0789 259.602 27.1915C259.662 27.3002 259.748 27.3787 259.861 27.427C259.974 27.4713 260.109 27.4934 260.266 27.4934C260.378 27.4934 260.497 27.4833 260.622 27.4632C260.751 27.4391 260.847 27.4189 260.912 27.4028L261.358 29.5339C261.217 29.5741 261.018 29.6244 260.761 29.6848C260.507 29.7452 260.203 29.7834 259.849 29.7995C259.157 29.8317 258.563 29.7512 258.068 29.558C257.577 29.3608 257.201 29.0549 256.939 28.6404C256.682 28.2259 256.557 27.7047 256.565 27.0768V18.1724ZM268.962 29.8236C268.37 29.8236 267.845 29.725 267.386 29.5278C266.931 29.3266 266.571 29.0248 266.306 28.6223C266.044 28.2158 265.913 27.7067 265.913 27.095C265.913 26.5798 266.004 26.1451 266.185 25.791C266.366 25.4368 266.615 25.149 266.933 24.9277C267.251 24.7063 267.618 24.5393 268.032 24.4266C268.447 24.3099 268.889 24.2314 269.36 24.1912C269.887 24.1429 270.312 24.0926 270.634 24.0403C270.956 23.9839 271.189 23.9054 271.334 23.8048C271.483 23.7002 271.558 23.5533 271.558 23.3641V23.3339C271.558 23.024 271.451 22.7846 271.238 22.6155C271.024 22.4465 270.737 22.362 270.374 22.362C269.984 22.362 269.67 22.4465 269.433 22.6155C269.195 22.7846 269.044 23.018 268.98 23.3158L266.257 23.2192C266.338 22.6558 266.545 22.1527 266.879 21.71C267.217 21.2633 267.68 20.9131 268.268 20.6596C268.859 20.402 269.57 20.2732 270.399 20.2732C270.99 20.2732 271.536 20.3437 272.035 20.4845C272.534 20.6213 272.968 20.8226 273.339 21.0882C273.709 21.3498 273.995 21.6718 274.196 22.0541C274.401 22.4365 274.504 22.8731 274.504 23.3641V29.6667H271.727V28.3748H271.654C271.489 28.6887 271.278 28.9543 271.02 29.1717C270.767 29.389 270.467 29.552 270.121 29.6606C269.779 29.7693 269.392 29.8236 268.962 29.8236ZM269.873 27.8918C270.191 27.8918 270.477 27.8274 270.731 27.6986C270.988 27.5699 271.193 27.3928 271.346 27.1674C271.499 26.938 271.576 26.6724 271.576 26.3705V25.4891C271.491 25.5334 271.389 25.5736 271.268 25.6099C271.151 25.6461 271.022 25.6803 270.882 25.7125C270.741 25.7447 270.596 25.7729 270.447 25.797C270.298 25.8212 270.155 25.8433 270.018 25.8634C269.741 25.9077 269.503 25.9761 269.306 26.0687C269.113 26.1612 268.964 26.282 268.859 26.4309C268.759 26.5758 268.708 26.7488 268.708 26.9501C268.708 27.2559 268.817 27.4894 269.034 27.6503C269.256 27.8113 269.535 27.8918 269.873 27.8918ZM279.961 29.6667V17.303H285.068C285.994 17.303 286.793 17.4842 287.465 17.8464C288.141 18.2046 288.662 18.7056 289.029 19.3496C289.395 19.9895 289.578 20.734 289.578 21.5832C289.578 22.4365 289.391 23.183 289.017 23.8229C288.646 24.4588 288.117 24.9518 287.429 25.302C286.741 25.6521 285.924 25.8272 284.978 25.8272H281.827V23.4728H284.422C284.873 23.4728 285.249 23.3943 285.551 23.2374C285.857 23.0804 286.089 22.861 286.246 22.5793C286.403 22.2936 286.481 21.9615 286.481 21.5832C286.481 21.2009 286.403 20.8709 286.246 20.5932C286.089 20.3115 285.857 20.0941 285.551 19.9412C285.245 19.7883 284.869 19.7118 284.422 19.7118H282.949V29.6667H279.961ZM295.197 29.8418C294.223 29.8418 293.386 29.6425 292.685 29.2441C291.989 28.8416 291.452 28.2822 291.074 27.5658C290.699 26.8454 290.512 26.0103 290.512 25.0605C290.512 24.1067 290.699 23.2716 291.074 22.5552C291.452 21.8348 291.989 21.2753 292.685 20.8769C293.386 20.4745 294.223 20.2732 295.197 20.2732C296.171 20.2732 297.006 20.4745 297.702 20.8769C298.402 21.2753 298.94 21.8348 299.314 22.5552C299.692 23.2716 299.881 24.1067 299.881 25.0605C299.881 26.0103 299.692 26.8454 299.314 27.5658C298.94 28.2822 298.402 28.8416 297.702 29.2441C297.006 29.6425 296.171 29.8418 295.197 29.8418ZM295.215 27.6141C295.569 27.6141 295.869 27.5055 296.114 27.2881C296.36 27.0708 296.547 26.769 296.676 26.3826C296.809 25.9962 296.875 25.5495 296.875 25.0424C296.875 24.5272 296.809 24.0765 296.676 23.6901C296.547 23.3038 296.36 23.0019 296.114 22.7846C295.869 22.5673 295.569 22.4586 295.215 22.4586C294.849 22.4586 294.539 22.5673 294.285 22.7846C294.036 23.0019 293.845 23.3038 293.712 23.6901C293.583 24.0765 293.519 24.5272 293.519 25.0424C293.519 25.5495 293.583 25.9962 293.712 26.3826C293.845 26.769 294.036 27.0708 294.285 27.2881C294.539 27.5055 294.849 27.6141 295.215 27.6141ZM301.394 29.6667V20.394H304.261V22.0843H304.358C304.527 21.4726 304.803 21.0178 305.185 20.72C305.567 20.4181 306.012 20.2672 306.519 20.2672C306.656 20.2672 306.797 20.2772 306.942 20.2974C307.087 20.3135 307.221 20.3396 307.346 20.3758V22.9415C307.205 22.8932 307.02 22.855 306.791 22.8268C306.565 22.7987 306.364 22.7846 306.187 22.7846C305.837 22.7846 305.521 22.8631 305.239 23.02C304.962 23.173 304.742 23.3883 304.581 23.666C304.424 23.9396 304.346 24.2616 304.346 24.6319V29.6667H301.394ZM314.215 20.394V22.5673H308.365V20.394H314.215ZM309.59 18.1724H312.542V26.7508C312.542 26.932 312.571 27.0789 312.627 27.1915C312.687 27.3002 312.774 27.3787 312.887 27.427C312.999 27.4713 313.134 27.4934 313.291 27.4934C313.404 27.4934 313.522 27.4833 313.647 27.4632C313.776 27.4391 313.873 27.4189 313.937 27.4028L314.384 29.5339C314.243 29.5741 314.044 29.6244 313.786 29.6848C313.532 29.7452 313.229 29.7834 312.874 29.7995C312.182 29.8317 311.589 29.7512 311.094 29.558C310.603 29.3608 310.226 29.0549 309.965 28.6404C309.707 28.2259 309.582 27.7047 309.59 27.0768V18.1724ZM319.192 17.303L318.914 25.8815H316.433L316.156 17.303H319.192ZM317.671 29.8418C317.24 29.8418 316.87 29.6888 316.56 29.3829C316.254 29.0771 316.101 28.7068 316.101 28.2722C316.101 27.8455 316.254 27.4813 316.56 27.1795C316.87 26.8736 317.24 26.7207 317.671 26.7207C318.085 26.7207 318.45 26.8736 318.763 27.1795C319.081 27.4813 319.24 27.8455 319.24 28.2722C319.24 28.5619 319.166 28.8255 319.017 29.063C318.872 29.3004 318.681 29.4896 318.444 29.6305C318.21 29.7713 317.953 29.8418 317.671 29.8418Z" fill="url(#paint1_linear_1_56)"/>
<path d="M192.936 29.6667V17.303H198.043C198.969 17.303 199.768 17.4701 200.44 17.8041C201.116 18.1341 201.637 18.609 202.003 19.2288C202.369 19.8446 202.553 20.5751 202.553 21.4202C202.553 22.2775 202.365 23.0059 201.991 23.6056C201.617 24.2012 201.086 24.656 200.397 24.97C199.709 25.2798 198.894 25.4348 197.952 25.4348H194.723V23.0804H197.397C197.848 23.0804 198.224 23.022 198.526 22.9053C198.832 22.7846 199.063 22.6035 199.22 22.362C199.377 22.1165 199.456 21.8026 199.456 21.4202C199.456 21.0379 199.377 20.722 199.22 20.4724C199.063 20.2189 198.832 20.0297 198.526 19.905C198.22 19.7762 197.844 19.7118 197.397 19.7118H195.924V29.6667H192.936ZM199.896 24.0161L202.975 29.6667H199.715L196.697 24.0161H199.896ZM208.344 29.8418C207.374 29.8418 206.536 29.6506 205.832 29.2682C205.132 28.8819 204.593 28.3325 204.214 27.6202C203.84 26.9038 203.653 26.0526 203.653 25.0665C203.653 24.1087 203.842 23.2716 204.22 22.5552C204.599 21.8348 205.132 21.2753 205.82 20.8769C206.508 20.4745 207.319 20.2732 208.253 20.2732C208.913 20.2732 209.517 20.3758 210.064 20.5811C210.611 20.7864 211.084 21.0902 211.483 21.4927C211.881 21.8951 212.191 22.3922 212.412 22.9838C212.634 23.5714 212.744 24.2455 212.744 25.0062V25.7427H204.685V24.0282H209.998C209.994 23.7143 209.919 23.4346 209.774 23.1891C209.629 22.9436 209.43 22.7524 209.177 22.6155C208.927 22.4747 208.639 22.4043 208.313 22.4043C207.983 22.4043 207.687 22.4787 207.426 22.6276C207.164 22.7725 206.957 22.9717 206.804 23.2253C206.651 23.4748 206.571 23.7585 206.563 24.0765V25.8212C206.563 26.1995 206.637 26.5315 206.786 26.8173C206.935 27.099 207.146 27.3183 207.42 27.4753C207.694 27.6322 208.02 27.7107 208.398 27.7107C208.659 27.7107 208.897 27.6745 209.11 27.6021C209.324 27.5296 209.507 27.423 209.66 27.2821C209.812 27.1412 209.927 26.9682 210.004 26.7629L212.714 26.8414C212.602 27.4491 212.354 27.9784 211.972 28.4291C211.593 28.8758 211.096 29.224 210.481 29.4735C209.865 29.719 209.152 29.8418 208.344 29.8418ZM220.307 33.144V28.1635H220.247C220.122 28.4492 219.945 28.7169 219.716 28.9664C219.486 29.2159 219.198 29.4172 218.852 29.5701C218.51 29.723 218.106 29.7995 217.639 29.7995C216.955 29.7995 216.333 29.6224 215.773 29.2682C215.214 28.9141 214.767 28.3828 214.433 27.6745C214.099 26.9662 213.932 26.0868 213.932 25.0364C213.932 23.9457 214.105 23.0482 214.451 22.3439C214.797 21.6396 215.25 21.1184 215.81 20.7803C216.373 20.4423 216.979 20.2732 217.627 20.2732C218.114 20.2732 218.53 20.3577 218.876 20.5268C219.223 20.6918 219.508 20.9051 219.734 21.1667C219.959 21.4283 220.13 21.6999 220.247 21.9817H220.337V20.394H223.259V33.144H220.307ZM218.665 27.4994C219.023 27.4994 219.329 27.3988 219.583 27.1976C219.836 26.9923 220.032 26.7046 220.168 26.3343C220.305 25.964 220.374 25.5294 220.374 25.0303C220.374 24.5232 220.305 24.0865 220.168 23.7203C220.036 23.3541 219.84 23.0723 219.583 22.8751C219.329 22.6779 219.023 22.5793 218.665 22.5793C218.299 22.5793 217.989 22.6799 217.735 22.8812C217.482 23.0824 217.289 23.3661 217.156 23.7324C217.027 24.0986 216.963 24.5313 216.963 25.0303C216.963 25.5294 217.029 25.964 217.162 26.3343C217.295 26.7046 217.486 26.9923 217.735 27.1976C217.989 27.3988 218.299 27.4994 218.665 27.4994ZM231.109 25.6642V20.394H234.055V29.6667H231.242V27.9401H231.145C230.94 28.5076 230.59 28.9583 230.095 29.2924C229.604 29.6224 229.01 29.7874 228.314 29.7874C227.682 29.7874 227.126 29.6425 226.647 29.3528C226.169 29.063 225.796 28.6585 225.531 28.1393C225.265 27.6161 225.13 27.0044 225.126 26.3041V20.394H228.078V25.7246C228.082 26.2276 228.215 26.6241 228.477 26.9138C228.738 27.2036 229.094 27.3485 229.545 27.3485C229.839 27.3485 230.103 27.2841 230.336 27.1553C230.573 27.0225 230.761 26.8313 230.897 26.5818C231.038 26.3283 231.109 26.0224 231.109 25.6642ZM240.268 29.8418C239.298 29.8418 238.461 29.6506 237.757 29.2682C237.057 28.8819 236.517 28.3325 236.139 27.6202C235.765 26.9038 235.578 26.0526 235.578 25.0665C235.578 24.1087 235.767 23.2716 236.145 22.5552C236.523 21.8348 237.057 21.2753 237.745 20.8769C238.433 20.4745 239.244 20.2732 240.178 20.2732C240.838 20.2732 241.441 20.3758 241.989 20.5811C242.536 20.7864 243.009 21.0902 243.408 21.4927C243.806 21.8951 244.116 22.3922 244.337 22.9838C244.559 23.5714 244.669 24.2455 244.669 25.0062V25.7427H236.61V24.0282H241.922C241.918 23.7143 241.844 23.4346 241.699 23.1891C241.554 22.9436 241.355 22.7524 241.101 22.6155C240.852 22.4747 240.564 22.4043 240.238 22.4043C239.908 22.4043 239.612 22.4787 239.351 22.6276C239.089 22.7725 238.882 22.9717 238.729 23.2253C238.576 23.4748 238.495 23.7585 238.487 24.0765V25.8212C238.487 26.1995 238.562 26.5315 238.711 26.8173C238.86 27.099 239.071 27.3183 239.345 27.4753C239.618 27.6322 239.944 27.7107 240.323 27.7107C240.584 27.7107 240.822 27.6745 241.035 27.6021C241.248 27.5296 241.431 27.423 241.584 27.2821C241.737 27.1412 241.852 26.9682 241.928 26.7629L244.639 26.8414C244.526 27.4491 244.279 27.9784 243.896 28.4291C243.518 28.8758 243.021 29.224 242.405 29.4735C241.79 29.719 241.077 29.8418 240.268 29.8418ZM254.272 23.2253L251.562 23.2977C251.534 23.1045 251.457 22.9335 251.332 22.7846C251.208 22.6316 251.045 22.5129 250.843 22.4284C250.646 22.3399 250.417 22.2956 250.155 22.2956C249.813 22.2956 249.521 22.364 249.28 22.5008C249.042 22.6377 248.926 22.8228 248.93 23.0562C248.926 23.2374 248.998 23.3943 249.147 23.5271C249.3 23.6599 249.572 23.7666 249.962 23.8471L251.749 24.1851C252.675 24.3622 253.363 24.656 253.814 25.0665C254.268 25.4771 254.498 26.0204 254.502 26.6965C254.498 27.3324 254.309 27.8858 253.934 28.3567C253.564 28.8275 253.057 29.1938 252.413 29.4554C251.769 29.713 251.033 29.8418 250.204 29.8418C248.879 29.8418 247.835 29.5701 247.07 29.0268C246.31 28.4794 245.875 27.7469 245.766 26.8293L248.682 26.7569C248.747 27.095 248.914 27.3525 249.183 27.5296C249.453 27.7067 249.797 27.7952 250.216 27.7952C250.594 27.7952 250.902 27.7248 251.139 27.5839C251.377 27.4431 251.497 27.2559 251.502 27.0225C251.497 26.8132 251.405 26.6462 251.224 26.5214C251.043 26.3927 250.759 26.292 250.373 26.2196L248.755 25.9117C247.825 25.7427 247.133 25.4308 246.678 24.976C246.223 24.5172 245.998 23.9336 246.002 23.2253C245.998 22.6055 246.163 22.0762 246.497 21.6376C246.831 21.1949 247.306 20.8568 247.922 20.6234C248.537 20.3899 249.264 20.2732 250.101 20.2732C251.357 20.2732 252.347 20.5368 253.071 21.0641C253.796 21.5873 254.196 22.3077 254.272 23.2253ZM261.189 20.394V22.5673H255.34V20.394H261.189ZM256.565 18.1724H259.517V26.7508C259.517 26.932 259.545 27.0789 259.602 27.1915C259.662 27.3002 259.748 27.3787 259.861 27.427C259.974 27.4713 260.109 27.4934 260.266 27.4934C260.378 27.4934 260.497 27.4833 260.622 27.4632C260.751 27.4391 260.847 27.4189 260.912 27.4028L261.358 29.5339C261.217 29.5741 261.018 29.6244 260.761 29.6848C260.507 29.7452 260.203 29.7834 259.849 29.7995C259.157 29.8317 258.563 29.7512 258.068 29.558C257.577 29.3608 257.201 29.0549 256.939 28.6404C256.682 28.2259 256.557 27.7047 256.565 27.0768V18.1724ZM268.962 29.8236C268.37 29.8236 267.845 29.725 267.386 29.5278C266.931 29.3266 266.571 29.0248 266.306 28.6223C266.044 28.2158 265.913 27.7067 265.913 27.095C265.913 26.5798 266.004 26.1451 266.185 25.791C266.366 25.4368 266.615 25.149 266.933 24.9277C267.251 24.7063 267.618 24.5393 268.032 24.4266C268.447 24.3099 268.889 24.2314 269.36 24.1912C269.887 24.1429 270.312 24.0926 270.634 24.0403C270.956 23.9839 271.189 23.9054 271.334 23.8048C271.483 23.7002 271.558 23.5533 271.558 23.3641V23.3339C271.558 23.024 271.451 22.7846 271.238 22.6155C271.024 22.4465 270.737 22.362 270.374 22.362C269.984 22.362 269.67 22.4465 269.433 22.6155C269.195 22.7846 269.044 23.018 268.98 23.3158L266.257 23.2192C266.338 22.6558 266.545 22.1527 266.879 21.71C267.217 21.2633 267.68 20.9131 268.268 20.6596C268.859 20.402 269.57 20.2732 270.399 20.2732C270.99 20.2732 271.536 20.3437 272.035 20.4845C272.534 20.6213 272.968 20.8226 273.339 21.0882C273.709 21.3498 273.995 21.6718 274.196 22.0541C274.401 22.4365 274.504 22.8731 274.504 23.3641V29.6667H271.727V28.3748H271.654C271.489 28.6887 271.278 28.9543 271.02 29.1717C270.767 29.389 270.467 29.552 270.121 29.6606C269.779 29.7693 269.392 29.8236 268.962 29.8236ZM269.873 27.8918C270.191 27.8918 270.477 27.8274 270.731 27.6986C270.988 27.5699 271.193 27.3928 271.346 27.1674C271.499 26.938 271.576 26.6724 271.576 26.3705V25.4891C271.491 25.5334 271.389 25.5736 271.268 25.6099C271.151 25.6461 271.022 25.6803 270.882 25.7125C270.741 25.7447 270.596 25.7729 270.447 25.797C270.298 25.8212 270.155 25.8433 270.018 25.8634C269.741 25.9077 269.503 25.9761 269.306 26.0687C269.113 26.1612 268.964 26.282 268.859 26.4309C268.759 26.5758 268.708 26.7488 268.708 26.9501C268.708 27.2559 268.817 27.4894 269.034 27.6503C269.256 27.8113 269.535 27.8918 269.873 27.8918ZM279.961 29.6667V17.303H285.068C285.994 17.303 286.793 17.4842 287.465 17.8464C288.141 18.2046 288.662 18.7056 289.029 19.3496C289.395 19.9895 289.578 20.734 289.578 21.5832C289.578 22.4365 289.391 23.183 289.017 23.8229C288.646 24.4588 288.117 24.9518 287.429 25.302C286.741 25.6521 285.924 25.8272 284.978 25.8272H281.827V23.4728H284.422C284.873 23.4728 285.249 23.3943 285.551 23.2374C285.857 23.0804 286.089 22.861 286.246 22.5793C286.403 22.2936 286.481 21.9615 286.481 21.5832C286.481 21.2009 286.403 20.8709 286.246 20.5932C286.089 20.3115 285.857 20.0941 285.551 19.9412C285.245 19.7883 284.869 19.7118 284.422 19.7118H282.949V29.6667H279.961ZM295.197 29.8418C294.223 29.8418 293.386 29.6425 292.685 29.2441C291.989 28.8416 291.452 28.2822 291.074 27.5658C290.699 26.8454 290.512 26.0103 290.512 25.0605C290.512 24.1067 290.699 23.2716 291.074 22.5552C291.452 21.8348 291.989 21.2753 292.685 20.8769C293.386 20.4745 294.223 20.2732 295.197 20.2732C296.171 20.2732 297.006 20.4745 297.702 20.8769C298.402 21.2753 298.94 21.8348 299.314 22.5552C299.692 23.2716 299.881 24.1067 299.881 25.0605C299.881 26.0103 299.692 26.8454 299.314 27.5658C298.94 28.2822 298.402 28.8416 297.702 29.2441C297.006 29.6425 296.171 29.8418 295.197 29.8418ZM295.215 27.6141C295.569 27.6141 295.869 27.5055 296.114 27.2881C296.36 27.0708 296.547 26.769 296.676 26.3826C296.809 25.9962 296.875 25.5495 296.875 25.0424C296.875 24.5272 296.809 24.0765 296.676 23.6901C296.547 23.3038 296.36 23.0019 296.114 22.7846C295.869 22.5673 295.569 22.4586 295.215 22.4586C294.849 22.4586 294.539 22.5673 294.285 22.7846C294.036 23.0019 293.845 23.3038 293.712 23.6901C293.583 24.0765 293.519 24.5272 293.519 25.0424C293.519 25.5495 293.583 25.9962 293.712 26.3826C293.845 26.769 294.036 27.0708 294.285 27.2881C294.539 27.5055 294.849 27.6141 295.215 27.6141ZM301.394 29.6667V20.394H304.261V22.0843H304.358C304.527 21.4726 304.803 21.0178 305.185 20.72C305.567 20.4181 306.012 20.2672 306.519 20.2672C306.656 20.2672 306.797 20.2772 306.942 20.2974C307.087 20.3135 307.221 20.3396 307.346 20.3758V22.9415C307.205 22.8932 307.02 22.855 306.791 22.8268C306.565 22.7987 306.364 22.7846 306.187 22.7846C305.837 22.7846 305.521 22.8631 305.239 23.02C304.962 23.173 304.742 23.3883 304.581 23.666C304.424 23.9396 304.346 24.2616 304.346 24.6319V29.6667H301.394ZM314.215 20.394V22.5673H308.365V20.394H314.215ZM309.59 18.1724H312.542V26.7508C312.542 26.932 312.571 27.0789 312.627 27.1915C312.687 27.3002 312.774 27.3787 312.887 27.427C312.999 27.4713 313.134 27.4934 313.291 27.4934C313.404 27.4934 313.522 27.4833 313.647 27.4632C313.776 27.4391 313.873 27.4189 313.937 27.4028L314.384 29.5339C314.243 29.5741 314.044 29.6244 313.786 29.6848C313.532 29.7452 313.229 29.7834 312.874 29.7995C312.182 29.8317 311.589 29.7512 311.094 29.558C310.603 29.3608 310.226 29.0549 309.965 28.6404C309.707 28.2259 309.582 27.7047 309.59 27.0768V18.1724ZM319.192 17.303L318.914 25.8815H316.433L316.156 17.303H319.192ZM317.671 29.8418C317.24 29.8418 316.87 29.6888 316.56 29.3829C316.254 29.0771 316.101 28.7068 316.101 28.2722C316.101 27.8455 316.254 27.4813 316.56 27.1795C316.87 26.8736 317.24 26.7207 317.671 26.7207C318.085 26.7207 318.45 26.8736 318.763 27.1795C319.081 27.4813 319.24 27.8455 319.24 28.2722C319.24 28.5619 319.166 28.8255 319.017 29.063C318.872 29.3004 318.681 29.4896 318.444 29.6305C318.21 29.7713 317.953 29.8418 317.671 29.8418Z" fill="url(#paint2_linear_1_56)"/>
</g>
</g>
<rect x="1.07143" y="1.07143" width="326.857" height="45.1905" rx="6.92857" stroke="white" stroke-opacity="0.15" stroke-width="2.14286"/>
<defs>
<filter id="filter0_d_1_56" x="2.39972" y="-0.897445" width="47.2006" height="49.1283" filterUnits="userSpaceOnUse" color-interpolation-filters="sRGB">
<feFlood flood-opacity="0" result="BackgroundImageFix"/>
<feColorMatrix in="SourceAlpha" type="matrix" values="0 0 0 0 0 0 0 0 0 0 0 0 0 0 0 0 0 0 127 0" result="hardAlpha"/>
<feOffset/>
<feGaussianBlur stdDeviation="2.80014"/>
<feComposite in2="hardAlpha" operator="out"/>
<feColorMatrix type="matrix" values="0 0 0 0 0 0 0 0 0 0 0 0 0 0 0 0 0 0 0.25 0"/>
<feBlend mode="normal" in2="BackgroundImageFix" result="effect1_dropShadow_1_56"/>
<feBlend mode="normal" in="SourceGraphic" in2="effect1_dropShadow_1_56" result="shape"/>
</filter>
<filter id="filter1_d_1_56" x="44.2857" y="7.4524" width="282.429" height="32.4286" filterUnits="userSpaceOnUse" color-interpolation-filters="sRGB">
<feFlood flood-opacity="0" result="BackgroundImageFix"/>
<feColorMatrix in="SourceAlpha" type="matrix" values="0 0 0 0 0 0 0 0 0 0 0 0 0 0 0 0 0 0 127 0" result="hardAlpha"/>
<feOffset/>
<feGaussianBlur stdDeviation="2.85714"/>
<feComposite in2="hardAlpha" operator="out"/>
<feColorMatrix type="matrix" values="0 0 0 0 0 0 0 0 0 0 0 0 0 0 0 0 0 0 0.25 0"/>
<feBlend mode="normal" in2="BackgroundImageFix" result="effect1_dropShadow_1_56"/>
<feBlend mode="normal" in="SourceGraphic" in2="effect1_dropShadow_1_56" result="shape"/>
</filter>
<linearGradient id="paint0_linear_1_56" x1="56.0001" y1="-137" x2="158.5" y2="98" gradientUnits="userSpaceOnUse">
<stop stop-color="#610023"/>
<stop offset="1" stop-color="#1A0328"/>
</linearGradient>
<linearGradient id="paint1_linear_1_56" x1="321" y1="19.0001" x2="201.31" y2="-13.4976" gradientUnits="userSpaceOnUse">
<stop offset="1" stop-color="#E88CFF"/>
</linearGradient>
<linearGradient id="paint2_linear_1_56" x1="321" y1="19.0001" x2="201.31" y2="-13.4976" gradientUnits="userSpaceOnUse">
<stop offset="0.155" stop-color="#CF82FF"/>
<stop offset="0.825" stop-color="#FC71A3"/>
</linearGradient>
<clipPath id="clip0_1_56">
<rect width="329" height="47.3334" rx="8" fill="white"/>
</clipPath>
</defs>
</svg>
